<?xml version="1.0" encoding="UTF-8" standalone="no"?>
<!-- Created with Inkscape (http://www.inkscape.org/) -->

<svg
   xmlns:dc="http://purl.org/dc/elements/1.1/"
   xmlns:cc="http://creativecommons.org/ns#"
   xmlns:rdf="http://www.w3.org/1999/02/22-rdf-syntax-ns#"
   xmlns:svg="http://www.w3.org/2000/svg"
   xmlns="http://www.w3.org/2000/svg"
   xmlns:sodipodi="http://sodipodi.sourceforge.net/DTD/sodipodi-0.dtd"
   xmlns:inkscape="http://www.inkscape.org/namespaces/inkscape"
   width="512"
   height="512"
   id="svg2"
   version="1.1"
   inkscape:version="0.48.4 r9939"
   sodipodi:docname="Knight 1.svg">
  <defs
     id="defs4" />
  <sodipodi:namedview
     id="base"
     pagecolor="#ffffff"
     bordercolor="#666666"
     borderopacity="1.0"
     inkscape:pageopacity="0.0"
     inkscape:pageshadow="2"
     inkscape:zoom="2.8284271"
     inkscape:cx="275.12798"
     inkscape:cy="227.08301"
     inkscape:document-units="px"
     inkscape:current-layer="layer1"
     showgrid="false"
     inkscape:window-width="1366"
     inkscape:window-height="705"
     inkscape:window-x="-8"
     inkscape:window-y="-8"
     inkscape:window-maximized="1" />
  <metadata
     id="metadata7">
    <rdf:RDF>
      <cc:Work
         rdf:about="">
        <dc:format>image/svg+xml</dc:format>
        <dc:type
           rdf:resource="http://purl.org/dc/dcmitype/StillImage" />
        <dc:title />
      </cc:Work>
    </rdf:RDF>
  </metadata>
  <g
     inkscape:label="Layer 1"
     inkscape:groupmode="layer"
     id="layer1"
     transform="translate(0,-540.36218)">
    <path
       sodipodi:type="arc"
       style="fill:#784421;fill-opacity:1"
       id="path2985"
       sodipodi:cx="357.85715"
       sodipodi:cy="284.14285"
       sodipodi:rx="70.714287"
       sodipodi:ry="40.714287"
       d="m 428.57143,284.14285 c 0,22.48588 -31.65986,40.71429 -70.71428,40.71429 -39.05442,0 -70.71429,-18.22841 -70.71429,-40.71429 0,-22.48588 31.65987,-40.71428 70.71429,-40.71428 39.05442,0 70.71428,18.2284 70.71428,40.71428 z"
       transform="translate(0,540.36218)" />
    <path
       sodipodi:type="arc"
       style="fill:#784421;fill-opacity:1"
       id="path2991"
       sodipodi:cx="183.57143"
       sodipodi:cy="289.85715"
       sodipodi:rx="127.85714"
       sodipodi:ry="67.85714"
       d="m 311.42857,289.85715 c 0,37.47646 -57.2436,67.85714 -127.85714,67.85714 -70.61355,0 -127.857143,-30.38068 -127.857143,-67.85714 0,-37.47647 57.243593,-67.85714 127.857143,-67.85714 70.61354,0 127.85714,30.38067 127.85714,67.85714 z"
       transform="translate(0,540.36218)" />
    <path
       style="fill:#502d16;fill-opacity:1"
       id="path2993"
       d="m 428.98967,274.44731 c -7.58574,5.74344 -16.25757,9.90615 -24.4456,14.65382 -5.48368,3.1796 10.99374,-6.31349 16.49061,-9.47024 -6.48869,3.74348 -12.97738,7.48696 -19.46607,11.23043 -1.29946,0.80771 -2.83632,0.87194 -4.25111,1.29928 -1.27199,0.38422 -2.31202,0.89423 -3.64197,1.14868 -3.10863,0.54988 -6.15635,1.45498 -9.21842,2.24068 -4.73564,0.79075 -9.51421,1.35807 -14.29859,1.78913 -5.36985,0.43424 -10.75086,0.70022 -16.13609,0.83148 -3.56604,0.0403 -7.13234,0.0449 -10.69856,0.047 -3.36888,-0.53828 -6.71337,-1.15248 -10.06696,-1.76777 -4.61636,-1.39092 -9.44424,-1.6581 -14.15329,-2.53897 -3.63978,-0.52624 -7.11004,-1.707 -10.73464,-2.30536 -3.21238,-0.34425 -6.38536,-0.48226 -9.55883,-1.09302 -4.7881,-0.75241 -9.65555,-0.80329 -14.49173,-0.88775 -2.44827,-0.11124 -4.89951,0.14295 -7.32994,-0.26274 -1.05376,-0.1759 -2.38926,-0.63705 -1.84425,-1.05433 5.75869,-4.40904 11.90334,-8.28973 17.855,-12.43459 3.76785,-1.45236 7.80043,-1.98734 11.78608,-2.48017 3.80159,-0.43967 7.62839,-0.48372 11.44966,-0.44236 7.15698,0.0818 14.31384,0.12164 21.47128,0.11435 6.65912,0.12264 13.33808,-0.31142 19.98497,0.16541 5.57852,0.33552 11.09597,1.1414 16.64058,1.79361 5.02756,0.7916 9.88243,2.34157 14.91568,3.11284 4.19668,0.78168 8.28761,1.99182 12.48979,2.74571 3.29904,0.55129 6.64733,0.601 9.98253,0.65534 3.47829,0.0602 6.99507,0.24515 10.27081,-1.08192 2.37736,-1.1295 5.17417,-1.4149 7.37827,-2.88489 -16.41233,-8.6033 -12.29887,9.7936 -19.0291,13.8416 -1.21474,0.73063 -2.51544,1.11039 -3.71824,1.87846 -2.54413,1.15281 -5.04756,2.40789 -7.62243,3.49768 -2.96252,0.89369 -5.83197,1.96558 -8.91971,2.32862 -4.44299,0.4588 -8.91911,0.44078 -13.38085,0.49211 -3.93781,0.0132 -7.87562,0.0242 -11.81344,0.0301 -3.36376,-0.0186 -6.7276,-0.008 -10.09139,-0.003 -3.25371,0.009 -6.50742,0.006 -9.76098,-0.0263 -6.91089,0.13486 -13.77421,-0.70279 -20.62652,-1.47786 -6.1846,-0.66051 -12.3841,-1.39549 -18.41894,-2.92706 -2.93089,-0.96534 -6.03993,-0.90001 -9.02621,-1.5175 -3.27751,-0.98677 -6.63043,-1.65862 -10.01353,-2.15127 0,0 17.22989,-12.09749 17.22989,-12.09749 l 0,0 c 3.37951,0.60981 6.70487,1.44844 10.07226,2.11434 3.05847,0.37106 6.10864,0.77743 9.05674,1.7229 5.86703,1.52887 11.90829,2.25304 17.92581,2.91396 6.91524,0.75715 13.85276,1.35037 20.81737,1.05648 3.27752,-0.0313 6.55519,-0.0362 9.83285,-0.0249 3.35942,0.008 6.71884,0.0226 10.07827,0.0167 3.90099,0.0214 7.80222,0.0574 11.7032,0.0163 4.42394,-0.0467 8.87589,-0.0806 13.24997,-0.81986 2.94592,-0.6918 5.8552,-1.61653 8.64806,-2.78161 2.51862,-1.19623 5.09914,-2.27042 7.53256,-3.63786 1.5015,-0.69403 3.36716,-2.04071 5.04654,-2.17319 0.38652,-0.0305 1.44704,-0.0809 1.15079,0.16923 -5.33224,4.50203 -11.03014,8.55222 -16.5452,12.82833 -2.51041,0.80877 -4.96909,1.77057 -7.49778,2.52253 -3.50363,0.66816 -7.03472,0.63094 -10.59072,0.52605 -3.41742,-0.0634 -6.83716,-0.24264 -10.19004,-0.96468 -4.14861,-0.88771 -8.23794,-2.04482 -12.43069,-2.72594 -4.93793,-0.94123 -9.73558,-2.54809 -14.74616,-3.10607 -5.50793,-0.69412 -11.01651,-1.34744 -16.55986,-1.69506 -6.57068,-0.31956 -13.15713,-0.0751 -19.73329,-0.19493 -7.24397,-0.0208 -14.48786,-0.01 -21.73128,0.0945 -3.77272,0.09 -7.55532,0.15458 -11.30072,0.66627 -3.98296,0.5888 -8.05192,1.25895 -11.59967,3.27895 5.68277,-4.00249 11.42923,-7.91605 17.04831,-12.00746 0.0884,-0.0644 -0.30616,-0.24997 -0.19745,-0.26213 0.31651,-0.0354 0.62241,0.14013 0.93847,0.17927 2.3494,0.29098 4.71714,0.13323 7.07599,0.24443 4.9701,0.14091 9.97722,0.15366 14.89075,0.99837 3.16026,0.51419 6.37803,0.50312 9.52512,1.1315 3.56545,0.71988 7.04694,1.79955 10.65128,2.34114 4.74046,0.76727 9.49774,1.41637 14.17603,2.53325 3.2923,0.57364 6.60417,1.16873 9.93767,1.40591 3.53374,0.0124 7.06801,0.0345 10.60131,-0.0363 5.29313,-0.0994 10.58853,-0.29693 15.85754,-0.83779 4.79167,-0.55794 9.62035,-1.08605 14.31771,-2.2062 3.08032,-0.82478 6.17758,-1.58255 9.28805,-2.28338 2.54426,-0.83674 5.18407,-1.47445 7.5092,-2.8479 -43.62394,25.2653 1.95566,-1.13717 2.94681,-1.69075 5.47629,-3.05867 -10.83491,6.32343 -16.26115,9.47003 -1.13912,0.66056 2.21687,-1.42238 3.3041,-2.16526 0.43479,-0.29708 0.88355,-0.57318 1.32533,-0.85977 0,0 19.68816,-7.90101 19.68816,-7.90101 z"
       inkscape:connector-curvature="0"
       transform="translate(0,540.36218)" />
    <path
       sodipodi:type="arc"
       style="fill:#6c5d53;fill-opacity:1"
       id="path3083"
       sodipodi:cx="201.42857"
       sodipodi:cy="292"
       sodipodi:rx="52.857143"
       sodipodi:ry="52.857143"
       d="m 254.28572,292 c 0,29.19219 -23.66495,52.85714 -52.85715,52.85714 -29.19219,0 -52.85714,-23.66495 -52.85714,-52.85714 0,-29.19219 23.66495,-52.85714 52.85714,-52.85714 29.1922,0 52.85715,23.66495 52.85715,52.85714 z"
       transform="translate(0,540.36218)" />
    <path
       sodipodi:type="arc"
       style="fill:#6c5d53;fill-opacity:1"
       id="path3087"
       sodipodi:cx="209.28572"
       sodipodi:cy="367"
       sodipodi:rx="29.285715"
       sodipodi:ry="29.285715"
       d="m 238.57144,367 c 0,16.17405 -13.11167,29.28572 -29.28572,29.28572 -16.17405,0 -29.28571,-13.11167 -29.28571,-29.28572 0,-16.17405 13.11166,-29.28572 29.28571,-29.28572 16.17405,0 29.28572,13.11167 29.28572,29.28572 z"
       transform="translate(-11.428571,537.50504)" />
    <path
       transform="translate(-11.428571,394.6479)"
       d="m 238.57144,367 c 0,16.17405 -13.11167,29.28572 -29.28572,29.28572 -16.17405,0 -29.28571,-13.11167 -29.28571,-29.28572 0,-16.17405 13.11166,-29.28572 29.28571,-29.28572 16.17405,0 29.28572,13.11167 29.28572,29.28572 z"
       sodipodi:ry="29.285715"
       sodipodi:rx="29.285715"
       sodipodi:cy="367"
       sodipodi:cx="209.28572"
       id="path3089"
       style="fill:#6c5d53;fill-opacity:1"
       sodipodi:type="arc" />
    <path
       style="fill:none;stroke:#000000;stroke-width:1px;stroke-linecap:butt;stroke-linejoin:miter;stroke-opacity:1"
       d="m 237.28483,803.05653 26.26397,1.51523 32.82995,24.74873 -28.28427,27.27412 -21.2132,1.01015"
       id="path3091"
       inkscape:connector-curvature="0" />
    <path
       style="fill:none;stroke:#000000;stroke-width:1px;stroke-linecap:butt;stroke-linejoin:miter;stroke-opacity:1"
       d="m 295.87368,828.96694 -42.42641,0"
       id="path3095"
       inkscape:connector-curvature="0" />
    <path
       style="fill:none;stroke:#000000;stroke-width:1.02386165px;stroke-linecap:butt;stroke-linejoin:miter;stroke-opacity:1"
       d="m 282.71755,842.14943 -29.65019,0"
       id="path3097"
       inkscape:connector-curvature="0" />
    <path
       style="fill:#483e37;fill-opacity:1"
       d="m 256.57074,271.84891 c 1.18796,-0.1067 3.00623,-0.1052 4.04061,0.003 1.03438,0.10853 0.0624,0.19583 -2.15992,0.19399 -2.22234,-0.002 -3.06865,-0.0906 -1.88069,-0.19732 z"
       id="path3111"
       inkscape:connector-curvature="0"
       transform="translate(0,540.36218)" />
    <path
       sodipodi:type="arc"
       style="fill:#241f1c;fill-opacity:1"
       id="path3119"
       sodipodi:cx="167.93787"
       sodipodi:cy="297.09006"
       sodipodi:rx="3.7880721"
       sodipodi:ry="28.53681"
       d="m 171.72594,297.09006 c 0,15.76044 -1.69598,28.53681 -3.78807,28.53681 -2.0921,0 -3.78808,-12.77637 -3.78808,-28.53681 0,-15.76045 1.69598,-28.53681 3.78808,-28.53681 2.09209,0 3.78807,12.77636 3.78807,28.53681 z"
       transform="translate(0,540.36218)" />
    <path
       sodipodi:type="arc"
       style="fill:#241f1c;fill-opacity:1"
       id="path3121"
       sodipodi:cx="181.32239"
       sodipodi:cy="374.36673"
       sodipodi:rx="2.5253813"
       sodipodi:ry="8.8388348"
       d="m 183.84777,374.36673 c 0,4.88155 -1.13065,8.83883 -2.52538,8.83883 -1.39473,0 -2.52538,-3.95728 -2.52538,-8.83883 0,-4.88155 1.13065,-8.83884 2.52538,-8.83884 1.39473,0 2.52538,3.95729 2.52538,8.83884 z"
       transform="translate(0,540.36218)" />
    <rect
       style="fill:#6c5d53;fill-opacity:1"
       id="rect3125"
       width="245.97214"
       height="2.5253813"
       x="96.469566"
       y="359.97205"
       transform="translate(0,540.36218)" />
    <path
       sodipodi:type="arc"
       style="fill:#483737;fill-opacity:1"
       id="path3127"
       sodipodi:cx="343.19934"
       sodipodi:cy="362.24487"
       sodipodi:rx="1.767767"
       sodipodi:ry="8.3337584"
       d="m 344.96711,362.24487 c 0,4.60261 -0.79146,8.33376 -1.76777,8.33376 -0.97631,0 -1.76777,-3.73115 -1.76777,-8.33376 0,-4.6026 0.79146,-8.33376 1.76777,-8.33376 0.97631,0 1.76777,3.73116 1.76777,8.33376 z"
       transform="translate(0,540.36218)" />
    <path
       style="fill:none;stroke:#000000;stroke-width:1px;stroke-linecap:butt;stroke-linejoin:miter;stroke-opacity:1"
       d="m 343.75,357.53571 21.42857,6.07143 -21.42857,2.32143"
       id="path3129"
       inkscape:connector-curvature="0"
       transform="translate(0,540.36218)" />
    <path
       style="fill:#483737;fill-opacity:1"
       d="m 344.97905,362.01109 c -0.003,-1.75938 -0.0645,-3.29505 -0.13711,-3.41259 -0.0854,-0.13813 -0.0428,-0.17993 0.12043,-0.11819 0.13888,0.0525 4.04452,1.16986 8.6792,2.48294 l 8.4267,2.38741 -7.71241,0.83449 c -4.24183,0.45896 -8.08577,0.87731 -8.5421,0.92966 l -0.82969,0.0952 -0.005,-3.19889 0,0 z"
       id="path3131"
       inkscape:connector-curvature="0"
       transform="translate(0,540.36218)" />
    <path
       sodipodi:type="arc"
       style="fill:#241f1c;fill-opacity:1"
       id="path3137"
       sodipodi:cx="177.5"
       sodipodi:cy="226.82143"
       sodipodi:rx="2.5"
       sodipodi:ry="8.3928576"
       d="m 180,226.82143 c 0,4.63524 -1.11929,8.39285 -2.5,8.39285 -1.38071,0 -2.5,-3.75761 -2.5,-8.39285 0,-4.63525 1.11929,-8.39286 2.5,-8.39286 1.38071,0 2.5,3.75761 2.5,8.39286 z"
       transform="translate(0,540.36218)" />
    <path
       style="fill:none;stroke:#000000;stroke-width:1px;stroke-linecap:butt;stroke-linejoin:miter;stroke-opacity:1"
       d="m 251.37646,278.30121 29.69849,0"
       id="path3063"
       inkscape:connector-curvature="0"
       transform="translate(0,540.36218)" />
    <path
       style="fill:#6c5d53;fill-opacity:1"
       id="path3065"
       d="m 237.88907,258.7811 c 0.54416,0.8141 1.05097,1.65121 1.63095,2.44081 0.58294,0.90621 1.18503,1.7988 1.73391,2.72708 0.53279,0.86209 1.03664,1.73661 1.49682,2.63919 0.0711,0.10945 0.13391,0.22474 0.21328,0.32835 0.0834,0.1089 0.21437,0.31474 0.3317,0.24365 0.0448,-0.0272 0.0881,-0.17596 0.0418,-0.15155 -4.11922,2.16937 -5.75395,3.6019 -4.34415,2.37835 0.22943,-0.77214 -0.0409,-1.61926 -0.249,-2.37058 -0.24357,-0.89114 -0.47789,-1.78208 -0.731,-2.67082 -0.44185,-2.28641 2.84876,-4.82519 5.05601,-3.88084 0.5931,0.22839 0.91567,0.80836 1.27281,1.29784 0.53052,0.61532 0.89641,1.33557 1.30129,2.03142 0.29327,0.52229 0.51727,1.08155 0.80626,1.60538 0.32364,0.54073 0.42886,1.153 0.49467,1.76932 0.0686,0.80149 0.20954,1.59339 0.28687,2.39479 0.031,0.77726 0.099,1.53891 0.25229,2.30093 0.13827,0.66196 0.17716,1.33738 0.20133,2.01134 0.1055,0.58851 0.19902,1.18175 0.32121,1.76733 0.1787,0.67803 0.24212,1.37886 0.51605,2.02876 0.22989,0.54791 0.46075,1.09702 0.6658,1.65511 0.19473,0.6242 0.57373,0.98928 1.18106,1.19305 0.29497,0.0598 0.59553,0.15627 0.89451,0.0552 0.0894,-0.0303 0.33381,-0.17658 0.25142,-0.13048 -4.40198,2.4634 -5.50474,3.42385 -3.99916,2.15221 0.4079,-0.47943 0.86862,-1.07575 0.6877,-1.73873 -0.337,-0.35169 -0.95265,-0.29998 -1.40469,-0.3184 -0.28947,-0.006 -0.46518,-0.0368 -0.74244,0.0574 -0.0985,0.0335 -0.36604,0.19755 -0.27546,0.14646 9.94082,-5.60646 4.837,-3.28324 3.91944,-2.05659 -0.2207,0.11499 -0.18691,1.26403 -0.048,0.63057 -11.21904,5.35227 -4.99006,3.27688 -4.01895,2.08865 0.22003,-0.26922 0.40309,-0.57521 0.60669,-0.85722 2.91262,-1.89943 5.39483,-4.65235 5.21576,-0.89536 -0.0882,0.97589 -0.15481,1.95326 -0.19376,2.93233 -0.0259,0.79838 -0.029,1.59728 -0.0391,2.39597 0.002,0.9804 -0.007,1.96072 -0.004,2.94111 -5e-5,1.02052 0.003,2.04107 3.8e-4,3.06159 0.005,0.87274 -0.0309,1.74395 0.0934,2.60959 0.13259,0.72372 0.2056,1.45475 0.24565,2.18877 0.0365,0.83449 0.0199,1.67004 0.0213,2.50505 0.0265,0.87654 -0.11839,1.74636 -0.32769,2.59437 -0.21176,1.02314 -0.49889,2.02123 -0.84391,3.00637 -0.35069,0.95694 -0.71591,1.90809 -1.06783,2.86452 -0.25032,0.77071 -0.54952,1.51454 -0.91031,2.23988 -0.41602,0.83718 -0.74336,1.71831 -1.07711,2.59135 -0.42951,1.17883 -0.85268,2.3604 -1.26085,3.547 -0.35986,0.91533 -0.62681,1.86176 -0.82989,2.82314 -0.0684,0.60757 0.18563,0.39597 0.54443,0.20308 2.16071,-0.48808 5.29779,-2.62729 -2.62233,1.89704 0.45352,-0.24489 0.17807,-1.01099 0.10929,-1.40503 -0.15378,-0.79304 -0.20477,-1.59776 -0.23332,-2.4032 -0.0206,-0.87858 -0.0202,-1.7576 -0.0233,-2.63641 -0.002,-0.50723 -0.002,-1.01447 -0.002,-1.52171 0,0 4.66158,-2.37458 4.66158,-2.37458 l 0,0 c -0.001,0.50855 -0.003,1.0171 -0.006,1.52565 -0.004,0.87395 -0.008,1.74798 0.0135,2.62177 0.024,0.78056 0.0641,1.56263 0.20513,2.33237 0.1166,0.62754 0.3157,1.25759 0.16147,1.89681 -2.73679,1.60507 -3.85431,2.68649 -6.44728,3.24636 -0.73069,-0.001 -1.05421,-0.35698 -1.06289,-1.09823 0.17533,-0.9899 0.46908,-1.971 0.83685,-2.9061 0.40302,-1.18997 0.84601,-2.36522 1.25158,-3.55429 0.30855,-0.89151 0.65588,-1.77288 1.01666,-2.64174 0.39103,-0.69831 0.71618,-1.41996 0.94244,-2.18886 0.38759,-0.94299 0.71843,-1.90965 1.0936,-2.85808 0.34334,-0.96768 0.678,-1.93195 0.84455,-2.95007 0.1989,-0.81488 0.41077,-1.63816 0.39006,-2.48495 8.6e-4,-0.82443 -0.007,-1.64886 -0.0294,-2.47301 -0.0295,-0.71882 -0.0847,-1.43648 -0.21436,-2.14519 -0.14029,-0.89401 -0.12598,-1.78572 -0.10794,-2.68979 -0.002,-1.02038 2e-4,-2.04079 -7.4e-4,-3.06117 0.002,-0.97909 -0.009,-1.95808 -0.006,-2.93718 -0.008,-0.80423 -0.008,-1.60863 0.0251,-2.4124 0.0431,-0.98186 0.1188,-1.96138 0.19376,-2.94124 0.18146,-2.68288 -1.15801,-0.2164 4.26705,-3.49525 -0.32141,0.33524 -0.52687,0.70597 -0.76738,1.09791 -0.97461,1.58831 -4.24227,2.49946 -4.88296,2.8562 -0.63609,-0.36168 -0.66568,-0.92682 -0.48974,-1.59644 0.72609,-2.32811 3.7894,-3.51211 6.12831,-3.36192 0.69072,0.0663 1.37407,0.18254 1.75489,0.83212 0.2932,0.82117 0.0188,1.54773 -0.46498,2.24539 -1.40146,1.95488 -4.00917,3.72119 -6.33148,2.85359 -0.67281,-0.33963 -1.15663,-0.83475 -1.41287,-1.55709 -0.19283,-0.55271 -0.4273,-1.09068 -0.64376,-1.63408 -0.28666,-0.67687 -0.38254,-1.39692 -0.55868,-2.10634 -0.15794,-0.61142 -0.21743,-1.24634 -0.36752,-1.86103 -0.0173,-0.64698 -0.0423,-1.29631 -0.16454,-1.93368 -0.15248,-0.78371 -0.24843,-1.56037 -0.25276,-2.36134 -0.0714,-0.79981 -0.22551,-1.58541 -0.31127,-2.38074 -0.0454,-0.54869 -0.11074,-1.09694 -0.40224,-1.57808 -0.28322,-0.52406 -0.50693,-1.07947 -0.78598,-1.6062 -0.38197,-0.68544 -0.73929,-1.38468 -1.26789,-1.97595 -0.27755,-0.36383 -0.53991,-0.89404 -1.05618,-0.89904 -1.40256,1.12584 -0.38958,0.30477 4.21869,-2.47952 0.0551,-0.0333 -0.12976,0.0255 -0.18303,0.0617 -0.25182,0.17087 -0.24278,0.46691 -0.21411,0.73354 0.23347,0.89361 0.46295,1.78633 0.70344,2.67768 0.25413,0.85192 0.49956,1.74041 0.4533,2.63661 -0.24154,2.88785 -4.46487,4.39121 -5.54291,2.00717 -0.44928,-0.897 -0.9358,-1.76764 -1.47,-2.61794 -0.53054,-0.91866 -1.13314,-1.79025 -1.70945,-2.67962 -0.57291,-0.78676 -1.06179,-1.6288 -1.65948,-2.3975 0,0 4.50669,-2.69357 4.50669,-2.69357 z"
       inkscape:connector-curvature="0"
       transform="translate(0,540.36218)" />
    <path
       style="fill:#483e37;fill-opacity:1"
       d="m 249.22542,314.80214 c 1.18823,-2.34486 2.72325,-6.59234 3.53648,-9.78564 l 0.65278,-2.56326 13.89721,0 c 7.64346,0 13.89721,0.0463 13.89721,0.10297 0,0.0566 -3.00976,2.99973 -6.68835,6.54022 l -6.68835,6.43724 -7.18862,0.34678 c -3.95375,0.19074 -8.34382,0.42774 -9.75572,0.52667 l -2.5671,0.17989 0.90446,-1.78487 z"
       id="path3067"
       inkscape:connector-curvature="0"
       transform="translate(0,540.36218)" />
    <path
       style="fill:#483e37;fill-opacity:1"
       d="m 253.78577,300.06675 c 0.12994,-0.53475 0.32798,-3.15988 0.44009,-5.83363 l 0.20382,-4.86136 10.64967,0.0461 c 5.85732,0.0254 13.67255,0.14467 17.36718,0.26516 l 6.71752,0.21907 -1.14905,0.69495 c -0.63198,0.38222 -1.14905,0.80141 -1.14905,0.93154 0,0.13012 0.83664,0.34111 1.8592,0.46887 1.02256,0.12776 2.06739,0.36097 2.32185,0.51823 0.32967,0.20375 -0.78905,1.46828 -3.89213,4.39944 l -4.35478,4.11351 -14.6253,0.005 -14.62529,0.005 0.23627,-0.97228 z"
       id="path3069"
       inkscape:connector-curvature="0"
       transform="translate(0,540.36218)" />
    <path
       style="fill:#483e37;fill-opacity:1"
       d="m 254.33287,287.69239 c -0.009,-0.40309 -1.01415,-6.4952 -1.25369,-7.6014 l -0.21054,-0.97227 14.17023,0 c 9.39082,0 14.17023,-0.12157 14.17023,-0.36041 0,-0.19823 0.79549,0.23348 1.76776,0.95935 0.97227,0.72587 1.7658,1.40512 1.76339,1.50946 -0.002,0.10433 -0.59903,0.56841 -1.32582,1.03129 -0.7268,0.46288 -2.85173,1.93455 -4.72207,3.27037 l -3.40063,2.42877 -10.47634,0 c -5.762,0 -10.47913,-0.11932 -10.48252,-0.26516 z"
       id="path3071"
       inkscape:connector-curvature="0"
       transform="translate(0,540.36218)" />
    <path
       style="fill:#483e37;fill-opacity:1"
       d="m 251.53876,274.95812 c -0.47065,-1.50353 -1.77784,-4.55545 -2.90487,-6.78204 -1.12702,-2.22659 -1.99779,-4.0997 -1.93503,-4.16245 0.14032,-0.14032 13.255,0.55868 15.31788,0.81642 1.24843,0.15598 2.7128,1.11051 9.01562,5.8767 4.1388,3.12976 7.90451,5.98461 8.36826,6.34411 0.82429,0.639 0.53123,0.6535 -13.08147,0.6473 l -13.92466,-0.006 -0.85573,-2.73369 z m 8.36874,-3.16802 c -0.7292,-0.0763 -1.92244,-0.0763 -2.65165,0 -0.7292,0.0763 -0.13258,0.13868 1.32583,0.13868 1.45841,0 2.05503,-0.0624 1.32582,-0.13868 z"
       id="path3073"
       inkscape:connector-curvature="0"
       transform="translate(0,540.36218)" />
    <path
       style="fill:#483e37;fill-opacity:1"
       d="m 276.62553,287.45528 c 0.84168,-0.81657 8.17774,-5.86169 8.52345,-5.86169 0.32564,0 8.43448,5.98989 8.43448,6.23043 0,0.0734 -3.93201,0.13353 -8.73781,0.13353 -7.55721,0 -8.66787,-0.0679 -8.22012,-0.50227 z"
       id="path3075"
       inkscape:connector-curvature="0"
       transform="translate(0,540.36218)" />
    <path
       style="fill:#483e37;fill-opacity:1"
       d="m 288.998,291.77261 -1.58025,-0.35185 1.04475,-0.75933 1.04476,-0.75934 -1.23227,-0.21862 c -0.70951,-0.12588 0.41051,-0.23837 2.64019,-0.26516 l 3.87245,-0.0466 -1.38094,1.41422 c -1.4519,1.48687 -1.80604,1.56613 -4.40869,0.98663 z"
       id="path3077"
       inkscape:connector-curvature="0"
       transform="translate(0,540.36218)" />
  </g>
</svg>
