<?xml version="1.0" encoding="UTF-8" standalone="no"?>
<!-- Created with Inkscape (http://www.inkscape.org/) -->

<svg
   xmlns:dc="http://purl.org/dc/elements/1.1/"
   xmlns:cc="http://creativecommons.org/ns#"
   xmlns:rdf="http://www.w3.org/1999/02/22-rdf-syntax-ns#"
   xmlns:svg="http://www.w3.org/2000/svg"
   xmlns="http://www.w3.org/2000/svg"
   xmlns:sodipodi="http://sodipodi.sourceforge.net/DTD/sodipodi-0.dtd"
   xmlns:inkscape="http://www.inkscape.org/namespaces/inkscape"
   width="512"
   height="512"
   id="svg2"
   version="1.1"
   inkscape:version="0.48.4 r9939"
   sodipodi:docname="New document 1">
  <defs
     id="defs4" />
  <sodipodi:namedview
     id="base"
     pagecolor="#ffffff"
     bordercolor="#666666"
     borderopacity="1.0"
     inkscape:pageopacity="0.0"
     inkscape:pageshadow="2"
     inkscape:zoom="0.5"
     inkscape:cx="564.25292"
     inkscape:cy="234.11958"
     inkscape:document-units="px"
     inkscape:current-layer="layer1"
     showgrid="false"
     inkscape:window-width="1366"
     inkscape:window-height="705"
     inkscape:window-x="-8"
     inkscape:window-y="-8"
     inkscape:window-maximized="1" />
  <metadata
     id="metadata7">
    <rdf:RDF>
      <cc:Work
         rdf:about="">
        <dc:format>image/svg+xml</dc:format>
        <dc:type
           rdf:resource="http://purl.org/dc/dcmitype/StillImage" />
        <dc:title></dc:title>
      </cc:Work>
    </rdf:RDF>
  </metadata>
  <g
     inkscape:label="Layer 1"
     inkscape:groupmode="layer"
     id="layer1"
     transform="translate(0,-540.36218)">
    <path
       sodipodi:type="arc"
       style="fill:#784421;fill-opacity:1"
       id="path2985"
       sodipodi:cx="357.85715"
       sodipodi:cy="284.14285"
       sodipodi:rx="70.714287"
       sodipodi:ry="40.714287"
       d="m 428.57143,284.14285 a 70.714287,40.714287 0 1 1 -141.42857,0 70.714287,40.714287 0 1 1 141.42857,0 z"
       transform="translate(0,540.36218)" />
    <path
       sodipodi:type="arc"
       style="fill:#784421;fill-opacity:1"
       id="path2991"
       sodipodi:cx="183.57143"
       sodipodi:cy="289.85715"
       sodipodi:rx="127.85714"
       sodipodi:ry="67.85714"
       d="m 311.42857,289.85715 a 127.85714,67.85714 0 1 1 -255.714283,0 127.85714,67.85714 0 1 1 255.714283,0 z"
       transform="translate(0,540.36218)" />
    <path
       style="fill:#502d16;fill-opacity:1"
       id="path2993"
       d="m 428.98967,274.44731 c -7.58574,5.74344 -16.25757,9.90615 -24.4456,14.65382 -5.48368,3.1796 10.99374,-6.31349 16.49061,-9.47024 -6.48869,3.74348 -12.97738,7.48696 -19.46607,11.23043 -1.29946,0.80771 -2.83632,0.87194 -4.25111,1.29928 -1.27199,0.38422 -2.31202,0.89423 -3.64197,1.14868 -3.10863,0.54988 -6.15635,1.45498 -9.21842,2.24068 -4.73564,0.79075 -9.51421,1.35807 -14.29859,1.78913 -5.36985,0.43424 -10.75086,0.70022 -16.13609,0.83148 -3.56604,0.0403 -7.13234,0.0449 -10.69856,0.047 -3.36888,-0.53828 -6.71337,-1.15248 -10.06696,-1.76777 -4.61636,-1.39092 -9.44424,-1.6581 -14.15329,-2.53897 -3.63978,-0.52624 -7.11004,-1.707 -10.73464,-2.30536 -3.21238,-0.34425 -6.38536,-0.48226 -9.55883,-1.09302 -4.7881,-0.75241 -9.65555,-0.80329 -14.49173,-0.88775 -2.44827,-0.11124 -4.89951,0.14295 -7.32994,-0.26274 -1.05376,-0.1759 -2.38926,-0.63705 -1.84425,-1.05433 5.75869,-4.40904 11.90334,-8.28973 17.855,-12.43459 3.76785,-1.45236 7.80043,-1.98734 11.78608,-2.48017 3.80159,-0.43967 7.62839,-0.48372 11.44966,-0.44236 7.15698,0.0818 14.31384,0.12164 21.47128,0.11435 6.65912,0.12264 13.33808,-0.31142 19.98497,0.16541 5.57852,0.33552 11.09597,1.1414 16.64058,1.79361 5.02756,0.7916 9.88243,2.34157 14.91568,3.11284 4.19668,0.78168 8.28761,1.99182 12.48979,2.74571 3.29904,0.55129 6.64733,0.601 9.98253,0.65534 3.47829,0.0602 6.99507,0.24515 10.27081,-1.08192 2.37736,-1.1295 5.17417,-1.4149 7.37827,-2.88489 -16.41233,-8.6033 -12.29887,9.7936 -19.0291,13.8416 -1.21474,0.73063 -2.51544,1.11039 -3.71824,1.87846 -2.54413,1.15281 -5.04756,2.40789 -7.62243,3.49768 -2.96252,0.89369 -5.83197,1.96558 -8.91971,2.32862 -4.44299,0.4588 -8.91911,0.44078 -13.38085,0.49211 -3.93781,0.0132 -7.87562,0.0242 -11.81344,0.0301 -3.36376,-0.0186 -6.7276,-0.008 -10.09139,-0.003 -3.25371,0.009 -6.50742,0.006 -9.76098,-0.0263 -6.91089,0.13486 -13.77421,-0.70279 -20.62652,-1.47786 -6.1846,-0.66051 -12.3841,-1.39549 -18.41894,-2.92706 -2.93089,-0.96534 -6.03993,-0.90001 -9.02621,-1.5175 -3.27751,-0.98677 -6.63043,-1.65862 -10.01353,-2.15127 0,0 17.22989,-12.09749 17.22989,-12.09749 l 0,0 c 3.37951,0.60981 6.70487,1.44844 10.07226,2.11434 3.05847,0.37106 6.10864,0.77743 9.05674,1.7229 5.86703,1.52887 11.90829,2.25304 17.92581,2.91396 6.91524,0.75715 13.85276,1.35037 20.81737,1.05648 3.27752,-0.0313 6.55519,-0.0362 9.83285,-0.0249 3.35942,0.008 6.71884,0.0226 10.07827,0.0167 3.90099,0.0214 7.80222,0.0574 11.7032,0.0163 4.42394,-0.0467 8.87589,-0.0806 13.24997,-0.81986 2.94592,-0.6918 5.8552,-1.61653 8.64806,-2.78161 2.51862,-1.19623 5.09914,-2.27042 7.53256,-3.63786 1.5015,-0.69403 3.36716,-2.04071 5.04654,-2.17319 0.38652,-0.0305 1.44704,-0.0809 1.15079,0.16923 -5.33224,4.50203 -11.03014,8.55222 -16.5452,12.82833 -2.51041,0.80877 -4.96909,1.77057 -7.49778,2.52253 -3.50363,0.66816 -7.03472,0.63094 -10.59072,0.52605 -3.41742,-0.0634 -6.83716,-0.24264 -10.19004,-0.96468 -4.14861,-0.88771 -8.23794,-2.04482 -12.43069,-2.72594 -4.93793,-0.94123 -9.73558,-2.54809 -14.74616,-3.10607 -5.50793,-0.69412 -11.01651,-1.34744 -16.55986,-1.69506 -6.57068,-0.31956 -13.15713,-0.0751 -19.73329,-0.19493 -7.24397,-0.0208 -14.48786,-0.01 -21.73128,0.0945 -3.77272,0.09 -7.55532,0.15458 -11.30072,0.66627 -3.98296,0.5888 -8.05192,1.25895 -11.59967,3.27895 5.68277,-4.00249 11.42923,-7.91605 17.04831,-12.00746 0.0884,-0.0644 -0.30616,-0.24997 -0.19745,-0.26213 0.31651,-0.0354 0.62241,0.14013 0.93847,0.17927 2.3494,0.29098 4.71714,0.13323 7.07599,0.24443 4.9701,0.14091 9.97722,0.15366 14.89075,0.99837 3.16026,0.51419 6.37803,0.50312 9.52512,1.1315 3.56545,0.71988 7.04694,1.79955 10.65128,2.34114 4.74046,0.76727 9.49774,1.41637 14.17603,2.53325 3.2923,0.57364 6.60417,1.16873 9.93767,1.40591 3.53374,0.0124 7.06801,0.0345 10.60131,-0.0363 5.29313,-0.0994 10.58853,-0.29693 15.85754,-0.83779 4.79167,-0.55794 9.62035,-1.08605 14.31771,-2.2062 3.08032,-0.82478 6.17758,-1.58255 9.28805,-2.28338 2.54426,-0.83674 5.18407,-1.47445 7.5092,-2.8479 -43.62394,25.2653 1.95566,-1.13717 2.94681,-1.69075 5.47629,-3.05867 -10.83491,6.32343 -16.26115,9.47003 -1.13912,0.66056 2.21687,-1.42238 3.3041,-2.16526 0.43479,-0.29708 0.88355,-0.57318 1.32533,-0.85977 0,0 19.68816,-7.90101 19.68816,-7.90101 z"
       inkscape:connector-curvature="0"
       transform="translate(0,540.36218)" />
    <path
       sodipodi:type="arc"
       style="fill:#6c5d53;fill-opacity:1"
       id="path3083"
       sodipodi:cx="201.42857"
       sodipodi:cy="292"
       sodipodi:rx="52.857143"
       sodipodi:ry="52.857143"
       d="m 254.28572,292 a 52.857143,52.857143 0 1 1 -105.71429,0 52.857143,52.857143 0 1 1 105.71429,0 z"
       transform="translate(0,540.36218)" />
    <path
       sodipodi:type="arc"
       style="fill:#6c5d53;fill-opacity:1"
       id="path3087"
       sodipodi:cx="209.28572"
       sodipodi:cy="367"
       sodipodi:rx="29.285715"
       sodipodi:ry="29.285715"
       d="m 238.57144,367 a 29.285715,29.285715 0 1 1 -58.57143,0 29.285715,29.285715 0 1 1 58.57143,0 z"
       transform="translate(-11.428571,537.50504)" />
    <path
       transform="translate(-11.428571,394.6479)"
       d="m 238.57144,367 a 29.285715,29.285715 0 1 1 -58.57143,0 29.285715,29.285715 0 1 1 58.57143,0 z"
       sodipodi:ry="29.285715"
       sodipodi:rx="29.285715"
       sodipodi:cy="367"
       sodipodi:cx="209.28572"
       id="path3089"
       style="fill:#6c5d53;fill-opacity:1"
       sodipodi:type="arc" />
    <path
       style="fill:none;stroke:#000000;stroke-width:1px;stroke-linecap:butt;stroke-linejoin:miter;stroke-opacity:1"
       d="m 235.87062,254.91618 26.26397,1.51523 32.82995,24.74873 -28.28427,27.27412 -21.2132,1.01015"
       id="path3091"
       inkscape:connector-curvature="0"
       transform="translate(0,540.36218)" />
    <path
       style="fill:none;stroke:#000000;stroke-width:1px;stroke-linecap:butt;stroke-linejoin:miter;stroke-opacity:1"
       d="m 247.99245,271.07862 34.34519,0"
       id="path3093"
       inkscape:connector-curvature="0"
       transform="translate(0,540.36218)" />
    <path
       style="fill:none;stroke:#000000;stroke-width:1px;stroke-linecap:butt;stroke-linejoin:miter;stroke-opacity:1"
       d="m 294.45947,281.18014 -42.42641,0"
       id="path3095"
       inkscape:connector-curvature="0"
       transform="translate(0,540.36218)" />
    <path
       style="fill:none;stroke:#000000;stroke-width:1px;stroke-linecap:butt;stroke-linejoin:miter;stroke-opacity:1"
       d="m 281.32748,293.30197 -28.28427,0"
       id="path3097"
       inkscape:connector-curvature="0"
       transform="translate(0,540.36218)" />
    <path
       style="fill:none;stroke:#000000;stroke-width:1px;stroke-linecap:butt;stroke-linejoin:miter;stroke-opacity:1"
       d="m 271.73103,303.4035 -19.69797,0"
       id="path3099"
       inkscape:connector-curvature="0"
       transform="translate(0,540.36218)" />
    <path
       style="fill:none;stroke:#000000;stroke-width:1px;stroke-linecap:butt;stroke-linejoin:miter;stroke-opacity:1"
       d="m 265.16504,259.46186 -21.71828,0"
       id="path3101"
       inkscape:connector-curvature="0"
       transform="translate(0,540.36218)" />
    <path
       style="fill:#483e37;fill-opacity:1"
       d="m 252.39801,306.59953 c 0.18521,-0.98727 0.44317,-1.96723 0.57324,-2.17769 0.13007,-0.21046 4.01786,-0.38266 8.63952,-0.38266 l 8.40303,0 -1.68696,1.7405 c -1.86681,1.92606 -2.82365,2.12847 -11.55527,2.44444 l -4.71032,0.17044 0.33676,-1.79503 z"
       id="path3103"
       inkscape:connector-curvature="0"
       transform="translate(0,540.36218)" />
    <path
       style="fill:#483e37;fill-opacity:1"
       d="m 253.83709,300.18062 c 0.17665,-1.28884 0.32119,-3.22076 0.32119,-4.29315 l 0,-1.94981 13.25825,0.0233 13.25825,0.0233 -4.54568,4.26107 -4.54569,4.26106 -9.03376,0.009 -9.03375,0.009 0.32119,-2.34333 z"
       id="path3105"
       inkscape:connector-curvature="0"
       transform="translate(0,540.36218)" />
    <path
       style="fill:#483e37;fill-opacity:1"
       d="m 268.20386,292.5405 -13.48107,-0.13446 -0.26142,-2.13838 c -0.14378,-1.17611 -0.39572,-3.55891 -0.55987,-5.29511 l -0.29846,-3.15672 15.02585,0 c 8.26421,0 14.80992,0.1886 14.54602,0.41912 -0.2639,0.23051 -2.18445,1.62728 -4.26789,3.10393 -2.08344,1.47664 -3.88657,2.76918 -4.00694,2.87229 -0.74275,0.63625 1.44155,1.30166 5.24244,1.59702 l 4.39317,0.34139 -1.42538,1.2627 -1.42537,1.26269 -13.48108,-0.13447 z"
       id="path3107"
       inkscape:connector-curvature="0"
       transform="translate(0,540.36218)" />
    <path
       style="fill:#483e37;fill-opacity:1"
       d="m 252.17762,276.78149 c -0.58789,-1.93551 -1.20256,-3.86743 -1.36592,-4.29315 -0.26279,-0.68481 1.46288,-0.77404 14.97047,-0.77404 l 15.2675,0 4.2149,3.12173 4.2149,3.12173 -1.7239,1.17142 c -1.71548,1.1657 -1.8039,1.17142 -18.11647,1.17142 l -16.39258,0 -1.0689,-3.51911 z"
       id="path3109"
       inkscape:connector-curvature="0"
       transform="translate(0,540.36218)" />
    <path
       style="fill:#483e37;fill-opacity:1"
       d="m 256.57074,271.84891 c 1.18796,-0.1067 3.00623,-0.1052 4.04061,0.003 1.03438,0.10853 0.0624,0.19583 -2.15992,0.19399 -2.22234,-0.002 -3.06865,-0.0906 -1.88069,-0.19732 z"
       id="path3111"
       inkscape:connector-curvature="0"
       transform="translate(0,540.36218)" />
    <path
       style="fill:#483e37;fill-opacity:1"
       d="m 247.99214,266.78123 c -1.03015,-1.87038 -2.35935,-4.13936 -2.95379,-5.04219 l -1.0808,-1.64149 10.9056,0 10.90559,0 6.62196,5.05076 6.62195,5.05076 -14.57376,-0.009 -14.57376,-0.009 -1.87299,-3.40069 z"
       id="path3113"
       inkscape:connector-curvature="0"
       transform="translate(0,540.36218)" />
    <path
       style="fill:#483e37;fill-opacity:1"
       d="m 241.53137,257.31963 -1.18623,-1.26269 1.477,-0.001 c 0.81235,-7.6e-4 5.68176,0.24669 10.82091,0.5499 6.74848,0.39816 9.54934,0.74928 10.08349,1.26409 0.63763,0.61454 -0.69041,0.71279 -9.63468,0.71279 l -10.37425,0 -1.18624,-1.26269 z"
       id="path3115"
       inkscape:connector-curvature="0"
       transform="translate(0,540.36218)" />
    <path
       style="fill:#483e37;fill-opacity:1"
       d="m 276.3941,288.94299 c -1.15036,-0.32047 -0.87172,-0.61907 3.48782,-3.73773 l 4.73806,-3.38943 4.34085,0.02 4.34086,0.02 -4.04061,3.7535 -4.04061,3.75349 -3.78807,-0.0358 c -2.08344,-0.0197 -4.35068,-0.19253 -5.0383,-0.38409 z"
       id="path3117"
       inkscape:connector-curvature="0"
       transform="translate(0,540.36218)" />
    <path
       sodipodi:type="arc"
       style="fill:#241f1c;fill-opacity:1"
       id="path3119"
       sodipodi:cx="167.93787"
       sodipodi:cy="297.09006"
       sodipodi:rx="3.7880721"
       sodipodi:ry="28.53681"
       d="m 171.72594,297.09006 a 3.7880721,28.53681 0 1 1 -7.57615,0 3.7880721,28.53681 0 1 1 7.57615,0 z"
       transform="translate(0,540.36218)" />
    <path
       sodipodi:type="arc"
       style="fill:#241f1c;fill-opacity:1"
       id="path3121"
       sodipodi:cx="181.32239"
       sodipodi:cy="374.36673"
       sodipodi:rx="2.5253813"
       sodipodi:ry="8.8388348"
       d="m 183.84777,374.36673 a 2.5253813,8.8388348 0 1 1 -5.05076,0 2.5253813,8.8388348 0 1 1 5.05076,0 z"
       transform="translate(0,540.36218)" />
    <rect
       style="fill:#6c5d53;fill-opacity:1"
       id="rect3125"
       width="245.97214"
       height="2.5253813"
       x="96.469566"
       y="359.97205"
       transform="translate(0,540.36218)" />
    <path
       sodipodi:type="arc"
       style="fill:#483737;fill-opacity:1"
       id="path3127"
       sodipodi:cx="343.19934"
       sodipodi:cy="362.24487"
       sodipodi:rx="1.767767"
       sodipodi:ry="8.3337584"
       d="m 344.96711,362.24487 a 1.767767,8.3337584 0 1 1 -3.53554,0 1.767767,8.3337584 0 1 1 3.53554,0 z"
       transform="translate(0,540.36218)" />
    <path
       style="fill:none;stroke:#000000;stroke-width:1px;stroke-linecap:butt;stroke-linejoin:miter;stroke-opacity:1"
       d="m 343.75,357.53571 21.42857,6.07143 -21.42857,2.32143"
       id="path3129"
       inkscape:connector-curvature="0"
       transform="translate(0,540.36218)" />
    <path
       style="fill:#483737;fill-opacity:1"
       d="m 344.97905,362.01109 c -0.003,-1.75938 -0.0645,-3.29505 -0.13711,-3.41259 -0.0854,-0.13813 -0.0428,-0.17993 0.12043,-0.11819 0.13888,0.0525 4.04452,1.16986 8.6792,2.48294 l 8.4267,2.38741 -7.71241,0.83449 c -4.24183,0.45896 -8.08577,0.87731 -8.5421,0.92966 l -0.82969,0.0952 -0.005,-3.19889 0,0 z"
       id="path3131"
       inkscape:connector-curvature="0"
       transform="translate(0,540.36218)" />
    <path
       sodipodi:type="arc"
       style="fill:#241f1c;fill-opacity:1"
       id="path3137"
       sodipodi:cx="177.5"
       sodipodi:cy="226.82143"
       sodipodi:rx="2.5"
       sodipodi:ry="8.3928576"
       d="m 180,226.82143 a 2.5,8.3928576 0 1 1 -5,0 2.5,8.3928576 0 1 1 5,0 z"
       transform="translate(0,540.36218)" />
  </g>
</svg>
