<?xml version="1.0" encoding="UTF-8" standalone="no"?>
<!-- Created with Inkscape (http://www.inkscape.org/) -->

<svg
   xmlns:dc="http://purl.org/dc/elements/1.1/"
   xmlns:cc="http://creativecommons.org/ns#"
   xmlns:rdf="http://www.w3.org/1999/02/22-rdf-syntax-ns#"
   xmlns:svg="http://www.w3.org/2000/svg"
   xmlns="http://www.w3.org/2000/svg"
   xmlns:sodipodi="http://sodipodi.sourceforge.net/DTD/sodipodi-0.dtd"
   xmlns:inkscape="http://www.inkscape.org/namespaces/inkscape"
   width="512"
   height="512"
   id="svg2"
   version="1.1"
   inkscape:version="0.48.4 r9939"
   sodipodi:docname="New document 1">
  <defs
     id="defs4" />
  <sodipodi:namedview
     id="base"
     pagecolor="#ffffff"
     bordercolor="#666666"
     borderopacity="1.0"
     inkscape:pageopacity="0.0"
     inkscape:pageshadow="2"
     inkscape:zoom="1"
     inkscape:cx="362.38338"
     inkscape:cy="250.04822"
     inkscape:document-units="px"
     inkscape:current-layer="layer1"
     showgrid="false"
     inkscape:window-width="1366"
     inkscape:window-height="705"
     inkscape:window-x="-8"
     inkscape:window-y="-8"
     inkscape:window-maximized="1" />
  <metadata
     id="metadata7">
    <rdf:RDF>
      <cc:Work
         rdf:about="">
        <dc:format>image/svg+xml</dc:format>
        <dc:type
           rdf:resource="http://purl.org/dc/dcmitype/StillImage" />
        <dc:title></dc:title>
      </cc:Work>
    </rdf:RDF>
  </metadata>
  <g
     inkscape:label="Layer 1"
     inkscape:groupmode="layer"
     id="layer1"
     transform="translate(0,-540.36218)">
    <path
       sodipodi:type="arc"
       style="fill:#6c5353;fill-opacity:1"
       id="path2987"
       sodipodi:cx="247.85715"
       sodipodi:cy="257.71429"
       sodipodi:rx="85"
       sodipodi:ry="87.14286"
       d="m 332.85715,257.71429 a 85,87.14286 0 1 1 -170,0 85,87.14286 0 1 1 170,0 z"
       transform="translate(-41.428571,540.36218)" />
    <path
       sodipodi:type="arc"
       style="fill:#241c1c;fill-opacity:1"
       id="path2989"
       sodipodi:cx="239.28572"
       sodipodi:cy="256.28571"
       sodipodi:rx="9.2857141"
       sodipodi:ry="8.5714283"
       d="m 248.57143,256.28571 a 9.2857141,8.5714283 0 1 1 -18.57142,0 9.2857141,8.5714283 0 1 1 18.57142,0 z"
       transform="translate(-34.285714,537.50504)" />
    <path
       sodipodi:type="arc"
       style="fill:#c87137;fill-opacity:1"
       id="path2991"
       sodipodi:cx="203.57143"
       sodipodi:cy="392"
       sodipodi:rx="37.857143"
       sodipodi:ry="35.714287"
       d="m 241.42857,392 a 37.857143,35.714287 0 1 1 -75.71429,0 37.857143,35.714287 0 1 1 75.71429,0 z"
       transform="translate(4.2857143,527.50504)" />
    <path
       transform="translate(2.8571429,284.64789)"
       d="m 241.42857,392 a 37.857143,35.714287 0 1 1 -75.71429,0 37.857143,35.714287 0 1 1 75.71429,0 z"
       sodipodi:ry="35.714287"
       sodipodi:rx="37.857143"
       sodipodi:cy="392"
       sodipodi:cx="203.57143"
       id="path2993"
       style="fill:#c87137;fill-opacity:1"
       sodipodi:type="arc" />
    <path
       sodipodi:type="arc"
       style="fill:#241c1c;fill-opacity:1"
       id="path2995"
       sodipodi:cx="102.14286"
       sodipodi:cy="244.14285"
       sodipodi:rx="20.714285"
       sodipodi:ry="22.142857"
       d="m 122.85715,244.14285 a 20.714285,22.142857 0 1 1 -41.428574,0 20.714285,22.142857 0 1 1 41.428574,0 z"
       transform="translate(0,540.36218)" />
    <rect
       style="fill:#a05a2c;fill-opacity:1"
       id="rect3019"
       width="5.7142859"
       height="66.315498"
       x="98.571426"
       y="739.505" />
    <rect
       style="fill:#a05a2c;fill-opacity:1"
       id="rect3021"
       width="4.2857141"
       height="60.17099"
       x="112.85714"
       y="739.505" />
    <rect
       style="fill:#a05a2c;fill-opacity:1"
       id="rect3023"
       width="4.2857141"
       height="71.329285"
       x="90"
       y="730.93359" />
    <rect
       style="fill:#a05a2c;fill-opacity:1"
       id="rect3025"
       width="2.8571429"
       height="67.043571"
       x="105.71429"
       y="738.07648" />
    <path
       style="fill:#a05a2c;fill-opacity:1"
       id="path3029"
       d="m 90.881573,261.73255 c 0.07563,0.12302 0.155585,0.24512 0.284494,0.31595 -0.689622,0.43875 -0.655728,0.66651 -0.929656,0.26375 -0.06396,-0.0939 -0.107748,-0.2236 -0.206091,-0.28766 -0.23135,0.21515 0.03592,-0.0354 0.761853,-0.42055 0.0062,-0.003 -0.0012,0.0145 0.0014,0.021 0.0039,0.01 0.01171,0.0171 0.01769,0.0255 0.03949,0.0558 0.02074,0.0327 0.06746,0.0813 0.0715,0.0889 0.164805,0.15516 0.263878,0.20993 0.103366,0.0422 0.210586,0.0749 0.313187,0.11918 0.09403,0.0519 0.170182,0.12805 0.260527,0.18525 0.08197,0.0601 0.15556,0.13094 0.242233,0.18461 0.02706,0.012 0.0536,0.0297 0.08536,0.0239 0.01088,-0.002 0.03864,-0.0215 0.02894,-0.0162 -0.251803,0.13771 -0.504638,0.27355 -0.755246,0.41342 -0.0073,0.004 0.01784,-4.7e-4 0.02448,-0.006 0.0057,-0.004 0.0056,-0.0131 0.0084,-0.0197 -0.016,-0.10937 -0.07771,-0.20437 -0.110217,-0.30922 -0.02736,-0.11072 -0.02629,-0.22546 -0.02673,-0.33874 -0.03373,-0.41114 -0.302175,-0.0502 0.795464,-0.54129 0.01791,-0.008 0.02558,0.0298 0.03922,0.0439 0.0129,0.0133 0.0269,0.0256 0.04035,0.0383 0.07891,0.085 0.135241,0.18766 0.196661,0.28526 0.156897,0.28356 0.03085,0.0404 -0.791309,0.44395 -9.9e-5,5e-5 -0.03079,-0.0329 -0.05839,-0.0607 -0.03244,-0.0326 -0.07604,-0.0746 -0.108633,-0.10625 -0.05764,-0.0483 -0.219158,-0.28486 -0.284054,-0.28965 -0.01012,-7.5e-4 -0.01044,0.0174 -0.01566,0.0261 0.255409,-0.14345 0.508253,-0.29157 0.766228,-0.43035 0.0062,-0.003 -0.0057,0.0136 -0.0044,0.0205 0.0034,0.0188 0.0102,0.037 0.01805,0.0544 0.02756,0.0612 0.06827,0.11792 0.108684,0.17097 0.100313,0.15588 0.234803,0.27702 0.381196,0.38812 0.100352,0.059 0.342529,0.2774 0.460728,0.25926 0.01589,-0.002 0.02645,-0.0183 0.03967,-0.0274 -0.247053,0.13663 -0.492399,0.27639 -0.74116,0.40989 -0.01242,0.007 0.023,-0.0172 0.03098,-0.0288 0.01154,-0.0168 0.01902,-0.0362 0.02659,-0.0551 0.02711,-0.0679 0.03907,-0.13957 0.05147,-0.21112 0.01219,-0.0786 0.01519,-0.15799 0.0176,-0.23734 3.92e-4,-0.0129 -0.0096,-0.0322 0.0016,-0.0386 0.826326,-0.47491 0.660028,-0.69019 0.86556,-0.33725 0.151911,0.274 0.272834,0.56275 0.389339,0.85307 0.06405,0.11919 0.09191,0.25896 0.166402,0.37309 0.01,0.0153 0.02132,0.0333 0.03873,0.0389 0.009,0.003 0.02863,-0.0242 0.02023,-0.0199 -0.252707,0.13002 -0.502821,0.26502 -0.754231,0.39753 0.09884,-0.10997 0.106491,-0.2749 0.119148,-0.41634 0.0061,-0.12919 0.0144,-0.25938 0.0032,-0.38845 -0.0054,-0.11509 -0.06676,-0.18838 -0.140482,-0.2688 -0.0954,-0.0968 -0.218789,-0.1379 -0.349251,-0.16058 -0.126019,-0.0243 -0.234207,0.0551 -0.357575,0.0659 -0.119575,-0.0365 -0.190036,-0.13286 -0.255138,-0.23277 -0.140004,-0.32696 -0.05718,-0.0875 0.800562,-0.44628 0.0062,-0.003 0.03838,0.0557 0.07104,0.0983 0.04168,0.0545 0.08719,0.10588 0.130558,0.159 0.139092,0.15132 0.257202,0.32446 0.411091,0.46142 0.025,0.0115 0.06813,0.0406 0.100318,0.0225 0.02013,-0.0113 0.06646,-0.0625 0.04597,-0.0519 -0.23647,0.12313 -0.461258,0.26787 -0.697628,0.39119 -0.02613,0.0136 0.04435,-0.039 0.06427,-0.0607 0.02184,-0.0238 0.04048,-0.0504 0.06072,-0.0757 0.0898,-0.12459 0.133742,-0.27424 0.216809,-0.40254 0.572969,-0.30777 0.653776,-0.69728 0.863272,-0.37242 0.05307,0.0823 0.07908,0.17889 0.103024,0.27257 -0.02815,-0.0774 0.02636,0.0873 0.02281,0.0647 -0.0022,-0.014 5.78e-4,-0.047 -0.01219,-0.0408 -0.264216,0.12848 -0.514335,0.28418 -0.773368,0.42282 -0.0079,0.004 0.01453,-0.0113 0.01908,-0.0191 0.0066,-0.0113 0.0091,-0.0246 0.01372,-0.0369 0.01869,-0.10384 0.06992,-0.1938 0.113372,-0.28787 1.047693,-0.51252 0.870164,-0.58921 0.753786,-0.16934 -0.03716,0.11707 -0.06752,0.23491 -0.08387,0.35669 -0.0216,0.1197 0.0014,0.23719 0.01892,0.35545 0.0091,0.11289 0.02501,0.22288 0.05043,0.33311 0.02563,0.11183 0.03182,0.22654 0.03596,0.34079 0.0031,0.12099 0.0027,0.24202 0.0026,0.36304 -1.03e-4,0.081 -5e-5,0.0405 -1.6e-4,0.12149 0,0 -0.80036,0.40767 -0.80036,0.40767 l 0,0 c 1.09e-4,-0.081 5.3e-5,-0.0405 1.69e-4,-0.12147 1.47e-4,-0.12008 6.13e-4,-0.24017 -0.0016,-0.36024 -0.003,-0.10872 -0.0067,-0.21805 -0.02913,-0.32486 -0.02538,-0.11288 -0.04734,-0.2242 -0.05214,-0.34033 -0.01774,-0.12507 -0.04861,-0.24938 -0.02954,-0.3763 0.01255,-0.12463 0.03344,-0.24825 0.07836,-0.36585 0.08948,-0.43749 0.243532,-0.29497 0.885052,-0.60415 0.005,-0.002 -0.002,0.0109 -0.003,0.0163 -0.05633,0.0813 -0.101815,0.16935 -0.126009,0.26574 -0.0022,0.0158 -0.0046,0.0315 -0.0067,0.0473 -0.002,0.0145 0.0068,0.0358 -0.0057,0.0435 -0.298855,0.18532 -0.769606,0.75843 -0.858966,0.33422 -0.115242,-0.4974 -0.376269,-0.11801 0.653784,-0.67053 -0.117443,0.0719 -0.151922,0.28107 -0.231008,0.39332 -0.240575,0.36656 -0.370129,0.33758 -0.946323,0.65686 -0.07236,0.0401 -0.15291,-0.0201 -0.206372,-0.0588 -0.147791,-0.14757 -0.268337,-0.3205 -0.410431,-0.4736 -0.0466,-0.0535 -0.09486,-0.10552 -0.141045,-0.15936 -0.01427,-0.0166 -0.02671,-0.0348 -0.04095,-0.0514 -0.0099,-0.0116 -0.04436,-0.0252 -0.03141,-0.0332 0.77335,-0.48045 0.958368,-0.188 0.756713,-0.47558 0.03287,0.0773 0.09809,0.15522 0.189364,0.14323 0.125332,-0.0325 0.245377,-0.0767 0.375866,-0.0369 0.143353,0.0374 0.275211,0.0985 0.38048,0.20595 0.0853,0.093 0.155996,0.18718 0.167297,0.31796 0.01969,0.13409 0.0066,0.27057 0.0027,0.4056 -0.01202,0.16183 -0.03336,0.32281 -0.08504,0.47744 -0.274217,0.15222 -0.540404,0.31991 -0.822651,0.45667 -0.01786,0.009 -0.0348,-0.0202 -0.04845,-0.0346 -0.107431,-0.11337 -0.11927,-0.31546 -0.200393,-0.44529 -0.114877,-0.2841 -0.229505,-0.57006 -0.395646,-0.82907 -0.223129,-0.27431 -0.0604,-0.0435 0.723508,-0.50004 0.0079,-0.005 -0.01492,0.0125 -0.01723,0.0213 -0.02057,0.0786 7.21e-4,0.16646 -0.01678,0.24575 -0.06634,0.56873 -0.145368,0.40209 -0.888971,0.82193 -0.204099,-0.0296 -0.362645,-0.19485 -0.531102,-0.30098 -0.152594,-0.11646 -0.29788,-0.24141 -0.403306,-0.4041 -0.355889,-0.49209 -0.136579,-0.35422 0.614291,-0.80411 0.13425,0.0801 0.218135,0.21904 0.329407,0.32582 0.378944,0.35351 0.258307,0.14695 -0.585613,0.65146 -0.0025,0.001 3.69e-4,-0.006 5.53e-4,-0.009 -0.04841,-0.095 -0.106674,-0.18649 -0.179777,-0.26443 -0.01434,-0.0136 -0.02861,-0.0274 -0.04301,-0.0409 -0.01142,-0.0108 -0.04726,-0.023 -0.03448,-0.0321 0.780435,-0.55597 0.705671,-0.74992 0.768332,-0.34765 -5e-6,0.10553 -0.0023,0.21209 0.01615,0.3164 0.0288,0.11356 0.09525,0.21178 0.122037,0.32608 0.08478,0.4084 -0.623032,0.72163 -0.951309,0.50334 -0.08365,-0.0582 -0.159802,-0.12561 -0.242434,-0.18517 -0.08251,-0.0578 -0.1576,-0.12731 -0.249953,-0.16967 -0.108058,-0.0395 -0.216582,-0.0799 -0.319567,-0.13122 -0.103464,-0.064 -0.201988,-0.13561 -0.278565,-0.23156 -0.01908,-0.0211 -0.149033,-0.17259 -0.126759,-0.18812 0.750445,-0.52322 0.531105,-0.66444 0.812135,-0.46321 0.08751,0.0901 0.150026,0.20274 0.214674,0.30943 0.284496,0.40315 0.406341,0.10764 -0.608015,0.67764 -0.116481,-0.10313 -0.212556,-0.22394 -0.299539,-0.35287 0,0 0.778445,-0.44897 0.778445,-0.44897 z"
       inkscape:connector-curvature="0"
       transform="translate(0,540.36218)" />
    <path
       style="fill:#a05a2c;fill-opacity:1"
       id="path3031"
       d="m 93.867118,264.52454 c -0.134048,-0.0279 -0.272888,-0.0224 -0.407272,-0.0462 0,0 0.741514,-0.51942 0.741514,-0.51942 l 0,0 c 0.132807,0.0227 0.267933,0.0287 0.401345,0.047 0,0 -0.735587,0.51865 -0.735587,0.51865 z"
       inkscape:connector-curvature="0"
       transform="translate(0,540.36218)" />
    <path
       sodipodi:type="arc"
       style="fill:#a05a2c;fill-opacity:1"
       id="path3035"
       sodipodi:cx="92.526199"
       sodipodi:cy="262.63431"
       sodipodi:rx="1.2134583"
       sodipodi:ry="0.91009378"
       d="m 93.739658,262.63431 a 1.2134583,0.91009378 0 1 1 -2.426917,0 1.2134583,0.91009378 0 1 1 2.426917,0 z"
       transform="translate(0,540.36218)" />
    <path
       sodipodi:type="arc"
       style="fill:#a05a2c;fill-opacity:1"
       id="path3037"
       sodipodi:cx="93.496964"
       sodipodi:cy="263.93878"
       sodipodi:rx="0.48538333"
       sodipodi:ry="0.27302814"
       d="m 93.982347,263.93878 a 0.48538333,0.27302814 0 1 1 -0.970767,0 0.48538333,0.27302814 0 1 1 0.970767,0 z"
       transform="translate(0,540.36218)" />
    <path
       sodipodi:type="arc"
       style="fill:#a05a2c;fill-opacity:1"
       id="path3039"
       sodipodi:cx="93.375618"
       sodipodi:cy="263.66574"
       sodipodi:rx="0.66740209"
       sodipodi:ry="0.60672915"
       d="m 94.04302,263.66574 a 0.66740209,0.60672915 0 1 1 -1.334804,0 0.66740209,0.60672915 0 1 1 1.334804,0 z"
       transform="translate(0,540.36218)" />
    <path
       sodipodi:type="arc"
       style="fill:#a05a2c;fill-opacity:1"
       id="path3041"
       sodipodi:cx="92.61721"
       sodipodi:cy="262.99835"
       sodipodi:rx="0.69773853"
       sodipodi:ry="0.78874791"
       d="m 93.314949,262.99835 a 0.69773853,0.78874791 0 1 1 -1.395477,0 0.69773853,0.78874791 0 1 1 1.395477,0 z"
       transform="translate(0,540.36218)" />
    <path
       sodipodi:type="arc"
       style="fill:#a05a2c;fill-opacity:1"
       id="path3043"
       sodipodi:cx="101.53613"
       sodipodi:cy="265.48593"
       sodipodi:rx="2.8212907"
       sodipodi:ry="0.78874791"
       d="m 104.35742,265.48593 a 2.8212907,0.78874791 0 1 1 -5.642578,0 2.8212907,0.78874791 0 1 1 5.642578,0 z"
       transform="translate(0,540.36218)" />
    <path
       sodipodi:type="arc"
       style="fill:#a05a2c;fill-opacity:1"
       id="path3045"
       sodipodi:cx="103.78103"
       sodipodi:cy="265.94098"
       sodipodi:rx="0.57639271"
       sodipodi:ry="0.21235521"
       d="m 104.35742,265.94098 a 0.57639271,0.21235521 0 1 1 -1.15278,0 0.57639271,0.21235521 0 1 1 1.15278,0 z"
       transform="translate(0,540.36218)" />
    <path
       sodipodi:type="arc"
       style="fill:#a05a2c;fill-opacity:1"
       id="path3047"
       sodipodi:cx="99.412575"
       sodipodi:cy="265.72864"
       sodipodi:rx="0.57639271"
       sodipodi:ry="0.36403751"
       d="m 99.988967,265.72864 a 0.57639271,0.36403751 0 1 1 -1.152785,0 0.57639271,0.36403751 0 1 1 1.152785,0 z"
       transform="translate(0,540.36218)" />
    <path
       sodipodi:type="arc"
       style="fill:#a05a2c;fill-opacity:1"
       id="path3049"
       sodipodi:cx="107.11803"
       sodipodi:cy="264.78821"
       sodipodi:rx="1.3651407"
       sodipodi:ry="0.030336458"
       d="m 108.48317,264.78821 a 1.3651407,0.03033646 0 1 1 -2.73028,0 1.3651407,0.03033646 0 1 1 2.73028,0 z"
       transform="translate(0,540.36218)" />
    <path
       sodipodi:type="arc"
       style="fill:#a05a2c;fill-opacity:1"
       id="path3051"
       sodipodi:cx="107.17871"
       sodipodi:cy="265.12189"
       sodipodi:rx="1.3651407"
       sodipodi:ry="0.84942085"
       d="m 108.54385,265.12189 a 1.3651407,0.84942085 0 1 1 -2.73028,0 1.3651407,0.84942085 0 1 1 2.73028,0 z"
       transform="translate(0,540.36218)" />
    <path
       sodipodi:type="arc"
       style="fill:#a05a2c;fill-opacity:1"
       id="path3055"
       sodipodi:cx="107.26972"
       sodipodi:cy="264.87921"
       sodipodi:rx="1.3954771"
       sodipodi:ry="0.24269167"
       d="m 108.6652,264.87921 a 1.3954771,0.24269167 0 1 1 -2.79096,0 1.3954771,0.24269167 0 1 1 2.79096,0 z"
       transform="translate(0,540.36218)" />
    <path
       sodipodi:type="arc"
       style="fill:#a05a2c;fill-opacity:1"
       id="path3057"
       sodipodi:cx="106.08659"
       sodipodi:cy="265.39493"
       sodipodi:rx="0.69773853"
       sodipodi:ry="0.51571983"
       d="m 106.78433,265.39493 a 0.69773853,0.51571983 0 1 1 -1.39547,0 0.69773853,0.51571983 0 1 1 1.39547,0 z"
       transform="translate(0,540.36218)" />
    <path
       style="fill:#ffffff;fill-opacity:1"
       id="path3059"
       d="m 108.73566,265.62914 c -0.16867,-0.004 -0.33741,-0.002 -0.50611,-0.002 -0.0216,0.004 -0.0437,0.006 -0.0649,0.0118 -0.0678,0.018 -0.0597,0.0214 -0.11834,0.0564 -0.018,0.0107 -0.0728,0.0417 -0.0546,0.0312 0.73539,-0.42077 0.9387,-0.58261 0.68037,-0.38089 -0.0641,0.0773 -0.10594,0.16785 -0.17222,0.24385 -0.30327,0.26814 -0.64501,0.53169 -1.04426,0.62697 -0.129,0.0219 -0.2607,0.019 -0.39113,0.0197 -0.13327,0.004 -0.26803,-0.0183 -0.39628,0.0252 -0.006,0.006 -0.0256,0.0235 -0.0184,0.0186 0.6922,-0.46137 0.48511,-0.51933 0.91105,-0.51131 0.10147,-0.002 0.21705,0.0192 0.30526,-0.0429 -0.69752,0.52062 -0.4712,0.51343 -0.8403,0.50502 -0.057,-0.001 -0.10573,-9e-4 -0.16158,0.0114 -0.13522,0.0294 -0.27382,0.0398 -0.41172,0.0476 -0.13045,0.009 -0.25722,0.0428 -0.38812,0.0536 -0.36349,0.0355 -0.52482,0.27654 0.6452,-0.51516 0.0215,-0.0145 0.0519,4e-5 0.0778,2.6e-4 0.13209,0.009 0.26081,-0.024 0.3911,-0.041 0.10923,-0.0358 0.21879,-0.0668 0.32188,-0.11834 -0.0576,0.055 0.23931,-0.13163 0.15415,-0.0825 -0.23973,0.13841 -0.95845,0.55446 -0.71982,0.41416 0.79165,-0.46542 0.52788,-0.36104 0.87474,-0.49396 0.10909,-0.0582 0.23268,-0.0794 0.3392,-0.14241 0.10089,-0.0517 0.21356,-0.0718 0.32209,-0.10205 0.11396,-0.0127 0.22015,-0.0487 0.33081,-0.0752 0.0684,-0.0118 0.0366,-0.002 0.0958,-0.0294 0,0 -0.71079,0.553 -0.71079,0.553 l 0,0 c -0.0659,0.015 -0.0328,0.007 -0.0994,0.0237 -0.10857,0.0305 -0.21986,0.0454 -0.32836,0.0762 -0.10685,0.0316 -0.2154,0.0567 -0.3124,0.11444 -0.11434,0.0452 -0.231,0.0848 -0.3409,0.14051 -0.0168,0.009 -0.067,0.0365 -0.0505,0.0269 0.23892,-0.13934 0.95676,-0.5555 0.71787,-0.4161 -0.31671,0.1848 -0.63444,0.40197 -0.97675,0.55022 -0.10899,0.0416 -0.22015,0.0804 -0.33596,0.0978 -0.13368,0.0193 -0.267,0.0405 -0.40269,0.0326 -0.0678,-0.001 -0.0877,-0.001 -0.0851,-0.004 0.7085,-0.57486 0.42374,-0.51057 0.81147,-0.54513 0.13005,-0.0181 0.2587,-0.0479 0.39049,-0.0505 0.13771,-0.0107 0.27414,-0.0294 0.41026,-0.0527 0.54271,-0.0194 0.24904,0.15964 -0.43012,0.57862 -0.10742,0.0137 -0.21499,0.0164 -0.32322,0.0107 -0.49177,-0.0261 -0.21691,-0.35687 0.55436,-0.57854 0.13402,-0.014 0.26903,-0.004 0.40352,-0.008 0.12627,-0.002 0.25578,-0.002 0.37633,-0.0442 0.30254,-0.13843 0.045,-0.0225 -0.67378,0.39877 -0.0154,0.009 0.0323,-0.0156 0.0472,-0.0254 0.0621,-0.0404 0.0272,-0.0257 0.0835,-0.0753 0.0137,-0.0121 0.0294,-0.0217 0.0441,-0.0325 0.0849,-0.0587 0.13404,-0.14456 0.17553,-0.2376 0.2191,-0.30223 0.0251,-0.048 0.84963,-0.52775 0.0794,-0.0462 0.1708,-0.0636 0.26172,-0.0632 0.17017,6.3e-4 0.34039,0.002 0.51054,-0.002 0,0 -0.72823,0.5291 -0.72823,0.5291 z"
       inkscape:connector-curvature="0"
       transform="translate(0,540.36218)" />
    <path
       sodipodi:type="arc"
       style="fill:#a05a2c;fill-opacity:1"
       id="path3063"
       sodipodi:cx="115.1572"
       sodipodi:cy="259.02426"
       sodipodi:rx="1.9415333"
       sodipodi:ry="1.4258136"
       d="m 117.09874,259.02426 a 1.9415333,1.4258136 0 1 1 -3.88307,0 1.9415333,1.4258136 0 1 1 3.88307,0 z"
       transform="translate(0,540.36218)" />
    <path
       sodipodi:type="arc"
       style="fill:#a05a2c;fill-opacity:1"
       id="path3065"
       sodipodi:cx="114.5808"
       sodipodi:cy="260.11639"
       sodipodi:rx="1.7291782"
       sodipodi:ry="0.81908441"
       d="m 116.30998,260.11639 a 1.7291782,0.81908441 0 1 1 -3.45836,0 1.7291782,0.81908441 0 1 1 3.45836,0 z"
       transform="translate(0,540.36218)" />
    <path
       sodipodi:type="arc"
       style="fill:#a05a2c;fill-opacity:1"
       id="path3067"
       sodipodi:cx="113.00331"
       sodipodi:cy="259.53998"
       sodipodi:rx="0.030336458"
       sodipodi:ry="0.72807503"
       d="m 113.03365,259.53998 a 0.03033646,0.72807503 0 1 1 -0.0607,0 0.03033646,0.72807503 0 1 1 0.0607,0 z"
       transform="translate(0,540.36218)" />
    <path
       sodipodi:type="arc"
       style="fill:#a05a2c;fill-opacity:1"
       id="path3069"
       sodipodi:cx="114.00441"
       sodipodi:cy="260.17706"
       sodipodi:rx="1.8808604"
       sodipodi:ry="1.4258136"
       d="m 115.88527,260.17706 a 1.8808604,1.4258136 0 1 1 -3.76172,0 1.8808604,1.4258136 0 1 1 3.76172,0 z"
       transform="translate(0,540.36218)" />
    <path
       sodipodi:type="arc"
       style="fill:#a05a2c;fill-opacity:1"
       id="path3071"
       sodipodi:cx="113.94374"
       sodipodi:cy="261.42084"
       sodipodi:rx="1.0921125"
       sodipodi:ry="0.36403751"
       d="m 115.03585,261.42084 a 1.0921125,0.36403751 0 1 1 -2.18422,0 1.0921125,0.36403751 0 1 1 2.18422,0 z"
       transform="translate(0,540.36218)" />
    <path
       sodipodi:type="arc"
       style="fill:#a05a2c;fill-opacity:1"
       id="path3073"
       sodipodi:cx="113.88306"
       sodipodi:cy="261.69388"
       sodipodi:rx="0.91009378"
       sodipodi:ry="0.39437395"
       d="m 114.79315,261.69388 a 0.91009378,0.39437395 0 1 1 -1.82019,0 0.91009378,0.39437395 0 1 1 1.82019,0 z"
       transform="translate(0,540.36218)" />
    <path
       sodipodi:type="arc"
       style="fill:#a05a2c;fill-opacity:1"
       id="path3075"
       sodipodi:cx="113.64037"
       sodipodi:cy="262.08826"
       sodipodi:rx="0.54605627"
       sodipodi:ry="0.36403751"
       d="m 114.18643,262.08826 a 0.54605627,0.36403751 0 1 1 -1.09211,0 0.54605627,0.36403751 0 1 1 1.09211,0 z"
       transform="translate(0,540.36218)" />
    <path
       style="fill:#241c1c;fill-opacity:1"
       id="path3077"
       d="m 112.28188,258.4157 c 7.4e-4,0.16198 0.0608,0.31276 0.11237,0.46351 0.0426,0.12185 0.097,0.23773 0.15992,0.35012 0.0582,0.10488 0.0759,0.22199 0.086,0.33965 0.007,0.12322 0.007,0.24677 0.005,0.37015 -0.003,0.13844 0.004,0.27712 -0.006,0.41528 -0.0192,0.12281 -0.0376,0.24543 -0.0472,0.36941 -0.008,0.1202 -0.008,0.2407 -0.009,0.3611 0.0137,0.098 -0.033,0.22768 0.0214,0.31766 -0.11824,-0.31327 0.0101,-0.0128 -0.781,0.37726 -0.0134,0.007 0.007,-0.029 0.009,-0.0438 0.009,-0.0533 0.009,-0.10755 0.0113,-0.16132 0.002,-0.12672 0.001,-0.25347 0.001,-0.3802 -0.008,-0.15251 0.0142,-0.30312 0.0333,-0.45384 0.0105,-0.1301 0.0248,-0.25868 0.0488,-0.38697 0.0344,-0.12108 0.062,-0.24328 0.0882,-0.36633 0.0336,-0.11676 0.0527,-0.23611 0.0631,-0.35693 0.008,-0.12017 0.008,-0.2407 0.008,-0.36109 -6e-5,-0.0531 9.4e-4,-0.10611 -0.002,-0.15914 -0.001,-0.0238 0.007,0.0758 0.0287,0.0653 0.26359,-0.1288 0.50512,-0.29852 0.75768,-0.44779 -0.0414,0.0886 -0.0387,0.19343 -0.0426,0.28957 0.004,0.13779 -0.02,0.27338 -0.0379,0.40941 -0.0167,0.12729 -0.0216,0.2556 -0.0244,0.38381 -0.002,0.13375 -0.002,0.26751 -0.002,0.40127 4.7e-4,0.12891 8.1e-4,0.25782 9.9e-4,0.38673 1.4e-4,0.12169 1.4e-4,0.24339 1.5e-4,0.36509 0,0.12125 0,0.2425 -10e-6,0.36374 0,0.12134 0,0.24267 0,0.36401 0,0.12134 0,0.24269 0,0.36404 0.002,0.11974 -0.005,0.23989 0.005,0.35931 0.0126,0.0659 0.0367,0.0875 0.10013,0.0921 0,0 -0.74506,0.50674 -0.74506,0.50674 l 0,0 c -0.08,-0.0396 -0.12986,-0.0916 -0.1504,-0.18161 -0.0182,-0.12199 -0.007,-0.24571 -0.01,-0.36877 0,-0.12135 0,-0.24269 0,-0.36404 0,-0.12133 0,-0.24267 -10e-6,-0.364 0,-0.12125 0,-0.2425 0,-0.36375 10e-6,-0.12172 10e-6,-0.24344 8e-5,-0.36517 9e-5,-0.12912 2.6e-4,-0.25825 4.1e-4,-0.38737 5e-5,-0.13406 -0.001,-0.26812 -1e-5,-0.40217 0.002,-0.13132 0.006,-0.2628 0.0216,-0.39333 0.0167,-0.13339 0.0452,-0.26577 0.0399,-0.4008 0.002,-0.10693 0.006,-0.2139 0.02,-0.32011 0.26306,-0.16589 0.78853,-0.70858 0.84186,-0.40219 0.009,0.0515 -0.0112,0.10945 -0.002,0.16136 3e-5,0.12233 4.5e-4,0.24472 -0.005,0.36694 -0.008,0.125 -0.0212,0.24988 -0.0568,0.37049 -0.0335,0.11954 -0.0421,0.24581 -0.0904,0.36177 -0.0234,0.12746 -0.0481,0.25307 -0.0527,0.38317 -0.0188,0.14746 -0.0489,0.29397 -0.0385,0.44338 8.5e-4,0.12702 0.003,0.25403 0.002,0.38105 -2.2e-4,0.0208 -0.004,0.21801 -0.009,0.22174 -0.77616,0.54117 -0.59348,0.74037 -0.81993,0.45873 -0.0478,-0.11277 -0.0302,-0.23711 -0.0341,-0.35643 1.5e-4,-0.12216 9e-5,-0.24438 0.006,-0.36643 0.008,-0.12536 0.021,-0.25014 0.0462,-0.37332 0.0214,-0.13408 0.005,-0.27133 0.0106,-0.40668 -8e-4,-0.12104 0.001,-0.24215 -0.004,-0.36313 -0.007,-0.10524 -0.0166,-0.21108 -0.0675,-0.30574 -0.0641,-0.11801 -0.12056,-0.23913 -0.16516,-0.36609 -0.0513,-0.16005 -0.11047,-0.31859 -0.12987,-0.48677 0,0 0.80204,-0.40865 0.80204,-0.40865 z"
       inkscape:connector-curvature="0"
       transform="translate(0,540.36218)" />
    <path
       style="fill:#241c1c;fill-opacity:1"
       id="path3079"
       d="m 105.72476,264.48872 c -0.0296,0.16714 -0.0421,0.33664 -0.0508,0.50595 -0.006,0.13274 -0.007,0.26562 -0.007,0.39846 -4e-5,0.081 1e-4,0.162 2.1e-4,0.24299 0,0 -0.8003,0.40789 -0.8003,0.40789 l 0,0 c -9e-5,-0.0811 -2.1e-4,-0.16227 -9e-5,-0.24341 3.9e-4,-0.13469 0.001,-0.26943 0.008,-0.40399 0.009,-0.17064 0.0244,-0.34076 0.0424,-0.5107 0,0 0.80766,-0.39719 0.80766,-0.39719 z"
       inkscape:connector-curvature="0"
       transform="translate(0,540.36218)" />
    <path
       style="fill:#241c1c;fill-opacity:1"
       id="path3081"
       d="m 94.989465,262.91307 c -0.0069,0.20003 -0.0044,0.40023 -0.0028,0.60032 0.0019,0.14718 0.0017,0.29436 0.0015,0.44155 3.2e-5,0.0699 2.41e-4,0.13976 4.23e-4,0.20964 0,0 -0.799041,0.40713 -0.799041,0.40713 l 0,0 c 1.83e-4,-0.07 3.92e-4,-0.14005 4.24e-4,-0.21007 -1.65e-4,-0.14771 -3.83e-4,-0.29541 0.0015,-0.44311 0.0016,-0.19914 0.0042,-0.39838 -0.0028,-0.59744 0,0 0.800772,-0.40802 0.800772,-0.40802 z"
       inkscape:connector-curvature="0"
       transform="translate(0,540.36218)" />
    <path
       style="fill:#483737;stroke:#000000;stroke-width:1px;stroke-linecap:butt;stroke-linejoin:miter;stroke-opacity:1"
       d="m 89.793211,190.56787 1.908238,-8.69309 2.438305,8.58708"
       id="path3085"
       inkscape:connector-curvature="0"
       transform="translate(0,540.36218)" />
    <path
       style="fill:#483737;stroke:#000000;stroke-width:1px;stroke-linecap:butt;stroke-linejoin:miter;stroke-opacity:1"
       d="m 98.592309,199.04893 2.544321,-8.26904 3.07438,8.48106"
       id="path3087"
       inkscape:connector-curvature="0"
       transform="translate(0,540.36218)" />
    <path
       style="fill:#6c5353;stroke:#000000;stroke-width:1px;stroke-linecap:butt;stroke-linejoin:miter;stroke-opacity:1"
       d="m 105.80121,197.67076 0.84811,-6.89087 1.80222,6.89087"
       id="path3089"
       inkscape:connector-curvature="0"
       transform="translate(0,540.36218)" />
    <path
       style="fill:#6c5353;stroke:#000000;stroke-width:1px;stroke-linecap:butt;stroke-linejoin:miter;stroke-opacity:1"
       d="m 113.01011,199.15494 1.5902,-7.10289 2.33229,7.10289"
       id="path3091"
       inkscape:connector-curvature="0"
       transform="translate(0,540.36218)" />
    <rect
       style="fill:#483737;fill-opacity:1"
       id="rect3093"
       width="39.860977"
       height="84.810585"
       x="82.266273"
       y="256.72012"
       transform="translate(0,540.36218)" />
    <path
       style="fill:#483737;fill-opacity:1"
       id="path3095"
       d="m 118.85144,258.44203 c 0.13673,-0.17464 0.27024,-0.35161 0.39234,-0.53683 0.10552,-0.16606 0.20873,-0.33216 0.29675,-0.50821 0.0927,-0.16015 0.12373,-0.34228 0.17777,-0.51642 0.0465,-0.1663 0.0927,-0.33277 0.13693,-0.49974 0.0478,0.004 0.11042,-0.48627 0.0476,-0.33206 -0.25235,0.38885 -0.0353,0.0394 1.04551,-0.55876 0.0216,-0.0119 -0.042,0.0262 -0.0609,0.0419 -0.0643,0.0536 -0.12234,0.12011 -0.18035,0.18032 -0.10361,0.12231 -0.18135,0.26083 -0.25127,0.40412 -0.0575,0.1453 -0.17725,0.24848 -0.26394,0.375 -0.0315,0.005 -0.12935,0.35445 -0.0456,0.28759 0.11976,-0.46202 0.0274,-0.0449 -1.0619,0.54508 -0.0239,0.0129 0.0414,-0.0354 0.0599,-0.0553 0.0637,-0.0685 0.10356,-0.1496 0.14569,-0.23197 0.0793,-0.18361 0.15192,-0.36956 0.23201,-0.55302 0.0652,-0.16102 0.13977,-0.317 0.23619,-0.46163 0.0767,-0.1205 0.15053,-0.24279 0.21654,-0.3695 0.003,-0.009 -1e-4,-0.0239 0.009,-0.0276 0.007,-0.003 0.007,0.0128 0.0104,0.0197 0.01,0.0227 0.0241,0.0443 0.0274,0.0687 0.001,0.01 -0.0233,0.0313 -0.0145,0.0264 0.94143,-0.5219 1.45752,-0.86518 1.06356,-0.60402 -0.0932,0.13572 -0.17585,0.28021 -0.25256,0.42604 -0.0852,0.17268 -0.15284,0.35289 -0.24812,0.52053 -0.0744,0.11628 -0.15378,0.22906 -0.22473,0.34762 -0.24507,0.49807 -0.20517,0.2684 -1.2615,0.64676 -0.0169,0.006 0.0135,-0.0666 0.0525,-0.16651 0.0835,-0.20378 0.1951,-0.39471 0.2997,-0.58816 0.079,-0.16411 0.18515,-0.31278 0.26971,-0.47367 0.0714,-0.14277 0.15141,-0.28021 0.21712,-0.42578 0.0883,-0.15295 0.19185,-0.29565 0.28349,-0.44667 0.12243,-0.21139 0.2362,-0.429 0.31799,-0.65952 0.0487,-0.1468 0.0627,-0.30047 0.0714,-0.45383 0,0 1.16834,-0.58842 1.16834,-0.58842 l 0,0 c -0.006,0.16377 -0.0159,0.32825 -0.0593,0.4872 -0.0731,0.24061 -0.18927,0.46262 -0.30657,0.68434 -0.0853,0.15327 -0.17218,0.30101 -0.28024,0.43875 -0.0816,0.13501 -0.126,0.29203 -0.22128,0.42075 -0.0706,0.17315 -0.18661,0.31794 -0.26967,0.48437 -0.10698,0.18642 -0.20817,0.37672 -0.30469,0.56859 -0.1797,0.50935 -0.54039,0.39193 -1.26024,0.75071 -0.0269,0.0134 0.0384,-0.0465 0.0544,-0.072 0.0129,-0.0205 0.0223,-0.043 0.0335,-0.0645 0.0515,-0.13007 0.13543,-0.24945 0.22402,-0.3567 0.0953,-0.16663 0.1849,-0.33308 0.25416,-0.51272 0.0668,-0.15455 0.16214,-0.29253 0.23486,-0.44394 0.17967,-0.47316 0.0177,-0.0817 1.18279,-0.73378 0.0562,-0.0314 0.12005,0.0905 0.12769,0.12986 0.003,0.0133 -0.005,0.0266 -0.008,0.0399 -0.0179,0.0786 -0.0523,0.11985 -0.0901,0.18853 -0.0383,0.0697 -0.0602,0.14864 -0.12014,0.20579 -0.0757,0.15148 -0.19444,0.281 -0.24587,0.44722 -0.0741,0.18864 -0.17055,0.36666 -0.22851,0.56189 -0.25124,0.5095 -0.71225,1.27775 -1.44053,0.99608 -0.13456,-0.1367 -0.11098,-0.30076 -0.0448,-0.46923 0.067,-0.14192 0.17414,-0.24372 0.26995,-0.36378 0.0635,-0.15605 0.14155,-0.30084 0.23695,-0.43914 0.32656,-0.42716 1.07113,-1.02237 1.48587,-0.91983 0.0245,0.0196 0.0531,0.035 0.0735,0.0589 0.10762,0.12538 0.0169,0.33095 -0.027,0.45889 -0.0498,0.16563 -0.0858,0.33499 -0.13084,0.50193 -0.0593,0.17915 -0.0921,0.36564 -0.1735,0.53725 -0.0914,0.17834 -0.17767,0.35707 -0.29178,0.52226 -0.12195,0.18537 -0.25044,0.36518 -0.37993,0.54464 0,0 -1.20702,0.51568 -1.20702,0.51568 z"
       inkscape:connector-curvature="0"
       transform="translate(0,540.36218)" />
    <path
       style="fill:#483737;fill-opacity:1"
       id="path3097"
       d="m 122.28372,251.83429 c -0.061,0.20667 -0.13471,0.40973 -0.19357,0.61707 -0.043,0.17682 -0.0851,0.35372 -0.12712,0.53075 -0.0543,0.14929 -0.0797,0.30601 -0.1195,0.45917 -0.065,0.19125 -0.11583,0.38524 -0.14479,0.58512 -0.0221,0.17893 -0.0236,0.35945 -0.0249,0.53946 -0.002,0.18256 0.006,0.36517 -0.008,0.54728 -0.029,0.19784 -0.0544,0.39585 -0.0682,0.59535 6.9e-4,0.16335 -0.0449,0.32064 -0.0709,0.4806 -0.0234,0.16509 -0.026,0.33209 -0.0284,0.49851 0.004,0.16594 0.0122,0.32635 -0.10113,0.45793 -0.23959,0.11979 -0.91207,0.81127 -1.41947,0.64908 -0.052,-0.0166 -0.10088,-0.0417 -0.15181,-0.0613 -0.14416,-0.0845 -0.29137,-0.14237 -0.40681,-0.2668 -0.13125,-0.2034 -0.13716,-0.4257 -0.0983,-0.65687 0.056,-0.25768 0.17902,-0.49228 0.28154,-0.73304 0.0755,-0.17543 0.17166,-0.34069 0.25792,-0.51113 0.0554,-0.13874 0.12703,-0.2697 0.19073,-0.40457 0,0 1.18853,-0.54563 1.18853,-0.54563 l 0,0 c -0.0558,0.14057 -0.13935,0.26596 -0.18736,0.40962 -0.0818,0.17346 -0.17348,0.33839 -0.26606,0.50552 -0.0945,0.23858 -0.22717,0.46177 -0.29493,0.7107 -0.0439,0.2002 -0.0672,0.35771 0.0463,0.5417 0.10579,0.10046 0.24681,0.15018 0.37456,0.2173 0.0861,0.0287 0.16861,0.0535 0.2592,0.0282 0.0228,-0.006 0.0872,-0.0361 0.0669,-0.024 -0.35238,0.21044 -0.7094,0.41302 -1.0641,0.61953 0.1889,-0.0539 0.15848,-0.17329 0.15757,-0.34329 0.001,-0.17111 0.002,-0.34257 0.0192,-0.513 0.0195,-0.15964 0.0687,-0.31312 0.0782,-0.47299 0.0119,-0.20128 0.0331,-0.40163 0.0667,-0.60054 0.0242,-0.17708 0.007,-0.35636 0.0118,-0.53472 6.1e-4,-0.18503 0.001,-0.37042 0.019,-0.55477 0.0239,-0.20406 0.0639,-0.40549 0.13547,-0.59878 0.0404,-0.15461 0.0645,-0.31216 0.11664,-0.46352 0.0639,-0.16834 0.0809,-0.35539 0.13221,-0.5281 0.0522,-0.21072 0.14176,-0.40848 0.1844,-0.62177 0,0 1.18822,-0.55803 1.18822,-0.55803 z"
       inkscape:connector-curvature="0"
       transform="translate(0,540.36218)" />
    <path
       style="fill:#483e37;fill-opacity:1"
       id="path3099"
       d="m 83.056758,252.25993 c 0.0099,0.2334 0.07159,0.45827 0.117232,0.68597 0.04555,0.1542 0.10337,0.30676 0.174476,0.45104 0.08084,0.14391 0.112009,0.30326 0.130234,0.4652 0.01471,0.17477 0.0138,0.35034 0.01393,0.52558 -3.02e-4,0.17703 -8.45e-4,0.35405 -0.0011,0.53107 4.78e-4,0.18543 -9.1e-4,0.37085 -0.0016,0.55627 -0.0095,0.17502 -0.04843,0.34635 -0.06788,0.5204 -0.0012,0.16052 -0.03464,0.31532 -0.06644,0.47158 -0.02365,0.13671 -0.038,0.27584 -0.03439,0.41471 -1.280847,2.2674 -1.176154,0.68119 -1.173277,0.27681 9.01e-4,-0.18294 7.64e-4,-0.36587 7.26e-4,-0.54881 -7.97e-4,-0.18685 5.37e-4,-0.37369 0.0012,-0.56053 -7.22e-4,-0.20935 6.43e-4,-0.4187 3.73e-4,-0.62805 0.01197,-0.20876 0.04754,-0.41553 0.09143,-0.61971 0.03718,-0.19697 0.07021,-0.39404 0.11283,-0.58998 0.03032,-0.14938 0.05093,-0.30144 0.05071,-0.45407 -0.0015,-0.005 -0.009,-0.012 -0.0045,-0.0141 1.568909,-0.73522 1.094286,-0.89153 1.200059,-0.23449 0.03456,0.17286 0.05086,0.34816 0.06031,0.52393 0.0075,0.17737 0.0074,0.35494 0.0076,0.53243 -0.01313,0.17653 0.02163,0.34867 0.04823,0.522 0.03105,0.13944 0.07999,0.27132 0.147028,0.39712 0.0673,0.16307 0.167872,0.30537 0.269258,0.44807 0.104299,0.17606 0.225287,0.34081 0.343194,0.50761 0.01814,0.0253 0.03489,0.0516 0.05442,0.0758 0.04538,0.0562 0.07554,0.0736 0.08128,0.0652 0.01134,-0.0166 0.0147,-0.0696 -0.003,-0.0602 -1.137548,0.60622 -1.035197,1.0778 -1.119587,0.58494 -0.05759,-0.24103 -0.158078,-0.46621 -0.24756,-0.6961 -0.07116,-0.21507 -0.133962,-0.43247 -0.219214,-0.64257 -0.06866,-0.1787 -0.136369,-0.35742 -0.213053,-0.5329 -0.240628,-0.44755 0.002,-0.15482 1.143917,-0.67117 0.01988,-0.009 0.02239,0.0375 0.03446,0.0557 0.161327,0.24305 -0.07488,-0.12354 0.103983,0.15599 0.120928,0.20832 0.235515,0.41929 0.363796,0.62379 0.143411,0.17051 0.252459,0.36739 0.394637,0.53817 0.12512,0.1401 0.21506,0.30153 0.29388,0.47073 -0.04088,-0.0854 0.05583,0.11971 0.05354,0.086 -0.02907,-0.42668 -0.765186,0.38296 -1.138058,0.5924 -0.01052,0.006 -0.0014,-0.0242 -0.0043,-0.0359 -0.0058,-0.0232 -0.01458,-0.0457 -0.02188,-0.0685 -0.04773,-0.19617 -0.158415,-0.3622 -0.269422,-0.52703 -0.126163,-0.16521 -0.224573,-0.34616 -0.313992,-0.53287 -0.0783,-0.16852 -0.118962,-0.35264 -0.215992,-0.512 -0.08353,-0.12926 -0.153677,-0.26652 -0.234821,-0.39697 -0.06416,-0.12673 -0.114535,-0.25589 -0.184579,-0.37998 -0.06642,-0.12919 -0.135043,-0.25704 -0.204165,-0.38491 -0.04783,-0.12259 -0.125268,-0.22828 -0.200522,-0.33494 -0.08349,-0.14097 -0.168463,-0.28025 -0.258054,-0.41745 -0.068,-0.10094 -0.105941,-0.21451 -0.137164,-0.33083 0,0 1.151522,-0.62292 1.151522,-0.62292 l 0,0 c 0.02403,0.10347 0.0546,0.20381 0.115831,0.29242 0.08953,0.1351 0.171333,0.27449 0.257521,0.41165 0.08006,0.10995 0.159366,0.22184 0.209439,0.34924 0.06816,0.12723 0.135251,0.25467 0.201394,0.38286 0.07059,0.12276 0.124526,0.24817 0.18378,0.37594 0.07921,0.13215 0.150067,0.26925 0.231708,0.40017 0.0967,0.16457 0.148401,0.34719 0.220791,0.5229 0.08714,0.18099 0.179471,0.35806 0.302682,0.51817 0.115153,0.17406 0.23596,0.34818 0.291792,0.55226 0.009,0.0237 0.01771,0.0475 0.02692,0.0711 0.0097,0.0249 0.05128,0.0584 0.02983,0.0744 -0.641471,0.47555 -0.974493,1.12492 -1.232552,0.55863 -0.07331,-0.16019 -0.159793,-0.31061 -0.276338,-0.44387 -0.139685,-0.17887 -0.255156,-0.37576 -0.396086,-0.55408 -0.130759,-0.20234 -0.243972,-0.41359 -0.368995,-0.61881 -0.0739,-0.11006 -0.02928,-0.0472 -0.107985,-0.15049 -0.01348,-0.0177 -0.05881,-0.0411 -0.04017,-0.0533 1.342747,-0.87309 1.046274,-0.9084 1.139122,-0.63523 0.06292,0.18015 0.145828,0.35351 0.206058,0.53489 0.0867,0.21073 0.15115,0.42918 0.219034,0.64651 0.08629,0.23416 0.189008,0.46178 0.258221,0.70209 0.01231,0.0332 0.0647,0.0776 0.03694,0.0995 -0.809772,0.64028 -0.931225,1.08458 -1.325498,0.52501 -0.115817,-0.16811 -0.234028,-0.33447 -0.344787,-0.50606 -0.102764,-0.14733 -0.203869,-0.29589 -0.278358,-0.46021 -0.07677,-0.13851 -0.128974,-0.28492 -0.166601,-0.43879 -0.02581,-0.17928 -0.07074,-0.35657 -0.05727,-0.53901 4e-5,-0.17564 5.09e-4,-0.35132 -0.0049,-0.52689 -0.007,-0.17068 -0.01899,-0.34142 -0.05334,-0.50914 -0.126124,-0.67682 0.127356,-0.48684 1.139622,-0.95587 -0.02245,0.15771 -0.01721,0.31889 -0.05267,0.47508 -0.04075,0.19717 -0.08688,0.39201 -0.115004,0.59166 -0.04295,0.19688 -0.07792,0.39468 -0.103646,0.59472 -2.68e-4,0.20922 0.0011,0.41844 3.8e-4,0.62766 6.14e-4,0.18649 0.002,0.37297 0.0011,0.55947 -1.69e-4,0.18288 -5.33e-4,0.36576 -1.56e-4,0.54864 0.0031,0.67649 0.0528,0.36507 -1.170507,0.91051 0.0163,-0.14428 0.0094,-0.29057 0.03337,-0.43424 0.02564,-0.155 0.07896,-0.30348 0.07281,-0.4625 0.0148,-0.17195 0.04335,-0.3413 0.07685,-0.51054 -6.2e-4,-0.18504 -0.002,-0.37009 -0.0011,-0.55514 2.36e-4,-0.17697 6.75e-4,-0.35393 0.0012,-0.5309 1.87e-4,-0.17114 0.0015,-0.34248 -0.009,-0.51338 -0.0128,-0.14747 -0.03474,-0.29287 -0.108736,-0.42394 -0.07549,-0.15529 -0.13873,-0.31832 -0.186903,-0.48413 -0.04107,-0.22982 -0.100361,-0.45599 -0.124995,-0.68861 0,0 1.159715,-0.61178 1.159715,-0.61178 z"
       inkscape:connector-curvature="0"
       transform="translate(0,540.36218)" />
    <path
       sodipodi:type="arc"
       style="fill:#483e37;fill-opacity:1"
       id="path3101"
       sodipodi:cx="146.5"
       sodipodi:cy="268.5"
       sodipodi:rx="9.5"
       sodipodi:ry="37.5"
       d="m 156,268.5 a 9.5,37.5 0 1 1 -19,0 9.5,37.5 0 1 1 19,0 z"
       transform="translate(0,540.36218)" />
    <path
       sodipodi:type="arc"
       style="fill:#917c6f;fill-opacity:1"
       id="path3103"
       sodipodi:cx="204.61902"
       sodipodi:cy="253.64085"
       sodipodi:rx="1.3258252"
       sodipodi:ry="1.3258252"
       d="m 205.94484,253.64085 a 1.3258252,1.3258252 0 1 1 -2.65165,0 1.3258252,1.3258252 0 1 1 2.65165,0 z"
       transform="translate(0,540.36218)" />
    <path
       style="fill:#784421;stroke:#000000;stroke-width:1px;stroke-linecap:butt;stroke-linejoin:miter;stroke-opacity:1"
       d="m 243.59829,382.95301 191.97949,0 0,4.5962 -191.97949,0 z"
       id="path3107"
       inkscape:connector-curvature="0"
       transform="translate(0,540.36218)" />
    <path
       style="fill:none;stroke:#000000;stroke-width:1px;stroke-linecap:butt;stroke-linejoin:miter;stroke-opacity:1"
       d="m 243.59829,382.24591 19.09188,-12.72793 30.75915,-20.5061 44.19417,-7.42461 c 34.13092,6.48181 48.55466,9.78164 62.22539,17.67766 l 27.93072,23.68808 7.77818,0.35356"
       id="path3119"
       inkscape:connector-curvature="0"
       transform="translate(0,540.36218)"
       sodipodi:nodetypes="ccccccc" />
  </g>
</svg>
