<?xml version="1.0" encoding="UTF-8" standalone="no"?>
<!-- Created with Inkscape (http://www.inkscape.org/) -->

<svg
   xmlns:dc="http://purl.org/dc/elements/1.1/"
   xmlns:cc="http://creativecommons.org/ns#"
   xmlns:rdf="http://www.w3.org/1999/02/22-rdf-syntax-ns#"
   xmlns:svg="http://www.w3.org/2000/svg"
   xmlns="http://www.w3.org/2000/svg"
   xmlns:sodipodi="http://sodipodi.sourceforge.net/DTD/sodipodi-0.dtd"
   xmlns:inkscape="http://www.inkscape.org/namespaces/inkscape"
   width="512"
   height="512"
   id="svg3217"
   version="1.1"
   inkscape:version="0.48.4 r9939"
   sodipodi:docname="New document 2">
  <defs
     id="defs3219" />
  <sodipodi:namedview
     id="base"
     pagecolor="#ffffff"
     bordercolor="#666666"
     borderopacity="1.0"
     inkscape:pageopacity="0.0"
     inkscape:pageshadow="2"
     inkscape:zoom="0.35355339"
     inkscape:cx="109.77456"
     inkscape:cy="284.93922"
     inkscape:document-units="px"
     inkscape:current-layer="layer1"
     showgrid="false"
     inkscape:window-width="1366"
     inkscape:window-height="705"
     inkscape:window-x="-8"
     inkscape:window-y="-8"
     inkscape:window-maximized="1" />
  <metadata
     id="metadata3222">
    <rdf:RDF>
      <cc:Work
         rdf:about="">
        <dc:format>image/svg+xml</dc:format>
        <dc:type
           rdf:resource="http://purl.org/dc/dcmitype/StillImage" />
        <dc:title></dc:title>
      </cc:Work>
    </rdf:RDF>
  </metadata>
  <g
     inkscape:label="Layer 1"
     inkscape:groupmode="layer"
     id="layer1"
     transform="translate(0,-540.36218)"
     style="display:inline">
    <path
       style="fill:none;stroke:#000000;stroke-width:1px;stroke-linecap:butt;stroke-linejoin:miter;stroke-opacity:1"
       d="m 239.40616,714.97123 0,111.11678 26.26396,0 0,-115.15739 -26.26396,0 z"
       id="path3225"
       inkscape:connector-curvature="0" />
    <path
       sodipodi:type="arc"
       style="fill:#000000;fill-opacity:1"
       id="path3231"
       sodipodi:cx="253.04321"
       sodipodi:cy="288.75629"
       sodipodi:rx="13.637059"
       sodipodi:ry="4.0406103"
       d="m 266.68027,288.75629 a 13.637059,4.0406103 0 1 1 -27.27412,0 13.637059,4.0406103 0 1 1 27.27412,0 z"
       transform="translate(0,538.34187)" />
    <path
       transform="translate(-1.0101527,420.15403)"
       d="m 266.68027,288.75629 a 13.637059,4.0406103 0 1 1 -27.27412,0 13.637059,4.0406103 0 1 1 27.27412,0 z"
       sodipodi:ry="4.0406103"
       sodipodi:rx="13.637059"
       sodipodi:cy="288.75629"
       sodipodi:cx="253.04321"
       id="path3233"
       style="fill:#000000;fill-opacity:1"
       sodipodi:type="arc" />
    <path
       style="fill:none;stroke:#000000;stroke-width:1px;stroke-linecap:butt;stroke-linejoin:miter;stroke-opacity:1"
       d="m 238.396,206.93393 -221.223407,0 0,21.2132 223.243717,0 0,1.01016 116.16754,0 0,-22.22336 z"
       id="path3235"
       inkscape:connector-curvature="0"
       transform="translate(0,540.36218)" />
    <rect
       style="fill:#000000;fill-opacity:1"
       id="rect3237"
       width="50.507626"
       height="12.121831"
       x="322.23865"
       y="193.80194"
       transform="translate(0,540.36218)" />
    <rect
       style="fill:#000000;fill-opacity:1"
       id="rect3239"
       width="15.152288"
       height="39.39595"
       x="357.59399"
       y="200.87302"
       transform="translate(0,540.36218)" />
    <rect
       style="fill:#000000;fill-opacity:1"
       id="rect3241"
       width="47.477169"
       height="21.213203"
       x="325.26913"
       y="229.15729"
       transform="translate(0,540.36218)" />
    <rect
       style="fill:#552200;fill-opacity:1"
       id="rect3251"
       width="50"
       height="21.25"
       x="322.85715"
       y="228.96428"
       transform="translate(0,540.36218)" />
    <rect
       style="fill:#552200;fill-opacity:1"
       id="rect3253"
       width="50.535713"
       height="12.857142"
       x="322.32144"
       y="193.78572"
       transform="translate(0,540.36218)" />
    <rect
       style="fill:#552200;fill-opacity:1"
       id="rect3255"
       width="15.714286"
       height="22.5"
       x="356.96429"
       y="206.82143"
       transform="translate(0,540.36218)" />
    <rect
       style="fill:#552200;fill-opacity:1"
       id="rect3257"
       width="15.178572"
       height="5.7142859"
       x="357.5"
       y="203.78572"
       transform="translate(0,540.36218)" />
    <rect
       style="fill:#552200;fill-opacity:1"
       id="rect3259"
       width="1.25"
       height="9.4642859"
       x="356.96429"
       y="201.82143"
       transform="translate(0,540.36218)" />
    <path
       style="fill:#aa4400;fill-opacity:1"
       d="m 266.33354,218.07573 0,-10.53571 44.82143,0 44.82143,0 0,10.53571 0,10.53572 -44.82143,0 -44.82143,0 0,-10.53572 z"
       id="path3261"
       inkscape:connector-curvature="0"
       transform="translate(0,540.36218)" />
    <path
       style="fill:#aa4400;fill-opacity:1"
       d="m 17.805604,217.89935 0,-9.59645 110.106626,0 110.10663,0 0,9.59645 0,9.59644 -110.10663,0 -110.106626,0 0,-9.59644 z"
       id="path3263"
       inkscape:connector-curvature="0"
       transform="translate(0,540.36218)" />
    <path
       style="fill:#aa4400;fill-opacity:1"
       d="m 240.7126,227.83251 c -0.37039,-0.37039 -0.67344,-4.91607 -0.67344,-10.10152 l 0,-9.42809 12.12183,0 12.12184,0 0,10.10152 0,10.10153 -11.4484,0 c -6.29662,0 -11.75144,-0.30305 -12.12183,-0.67344 z"
       id="path3265"
       inkscape:connector-curvature="0"
       transform="translate(0,540.36218)" />
    <path
       style="fill:#aa4400;fill-opacity:1"
       d="m 240.03916,189.36254 0,-16.92006 12.12183,0 12.12184,0 0,16.92006 0,16.92005 -12.12184,0 -12.12183,0 0,-16.92005 z"
       id="path3267"
       inkscape:connector-curvature="0"
       transform="translate(0,540.36218)" />
    <path
       style="fill:#aa4400;fill-opacity:1"
       d="m 240.03916,257.41311 0,-26.88686 12.12183,0 12.12184,0 0,26.66167 0,26.66166 -4.29315,-0.99296 c -4.18093,-0.967 -13.0981,-0.57696 -17.67767,0.77324 l -2.27285,0.67011 0,-26.88686 z"
       id="path3269"
       inkscape:connector-curvature="0"
       transform="translate(0,540.36218)" />
    <path
       style="fill:none;stroke:#000000;stroke-width:1px;stroke-linecap:butt;stroke-linejoin:miter;stroke-opacity:1"
       d="m 28.284271,229.15729 0,104.04571 445.477269,0 0,-209.10158 -447.497574,0 0,81.82236"
       id="path3303"
       inkscape:connector-curvature="0"
       transform="translate(0,540.36218)" />
    <path
       sodipodi:type="arc"
       style="fill:#aa4400;fill-opacity:1"
       id="path3305"
       sodipodi:cx="146.47212"
       sodipodi:cy="338.75885"
       sodipodi:rx="53.538086"
       sodipodi:ry="5.5558391"
       d="m 200.01021,338.75885 a 53.538086,5.5558391 0 1 1 -107.076174,0 53.538086,5.5558391 0 1 1 107.076174,0 z"
       transform="translate(-8.0812204,540.36218)" />
    <path
       transform="translate(215.16249,540.36218)"
       d="m 200.01021,338.75885 a 53.538086,5.5558391 0 1 1 -107.076174,0 53.538086,5.5558391 0 1 1 107.076174,0 z"
       sodipodi:ry="5.5558391"
       sodipodi:rx="53.538086"
       sodipodi:cy="338.75885"
       sodipodi:cx="146.47212"
       id="path3311"
       style="fill:#aa4400;fill-opacity:1"
       sodipodi:type="arc" />
    <path
       sodipodi:type="arc"
       style="fill:#aa4400;fill-opacity:1"
       id="path3313"
       sodipodi:cx="146.47212"
       sodipodi:cy="338.75885"
       sodipodi:rx="53.538086"
       sodipodi:ry="5.5558391"
       d="m 200.01021,338.75885 a 53.538086,5.5558391 0 1 1 -107.076174,0 53.538086,5.5558391 0 1 1 107.076174,0 z"
       transform="translate(220.21325,320.14892)" />
    <path
       transform="translate(-8.0812252,320.14892)"
       d="m 200.01021,338.75885 a 53.538086,5.5558391 0 1 1 -107.076174,0 53.538086,5.5558391 0 1 1 107.076174,0 z"
       sodipodi:ry="5.5558391"
       sodipodi:rx="53.538086"
       sodipodi:cy="338.75885"
       sodipodi:cx="146.47212"
       id="path3315"
       style="fill:#d45500;fill-opacity:1"
       sodipodi:type="arc" />
    <path
       style="fill:#ff7f2a;fill-opacity:1"
       d="m 28.917282,281.03388 0,-51.51778 104.550788,0 104.55079,0 0,28.76606 0,28.76606 2.61055,1.7105 c 3.50344,2.29554 16.74937,3.01925 21.98801,1.20135 l 3.89043,-1.35005 -0.14399,-29.04188 -0.14399,-29.04189 28.3259,0 28.3259,0 0,10.10153 0,10.10152 25.25382,0 25.25381,0 0,-28.78934 0,-28.78935 -25.75889,0 -25.75889,0 0,6.56599 0,6.56599 -27.77919,0 -27.7792,0 0,-19.16961 0,-19.16961 -2.73078,-1.78928 c -3.24489,-2.12613 -18.22719,-2.4613 -22.77557,-0.50951 l -2.77792,1.19206 0,19.72297 0,19.72298 -105.56094,0 -105.560943,0 0,-40.4061 0,-40.4061 222.738633,0 222.73864,0 0,103.54063 0,103.54064 -221.72848,0 -221.728488,0 0,-51.51778 z"
       id="path3317"
       inkscape:connector-curvature="0"
       transform="translate(0,540.36218)" />
    <path
       style="fill:none;stroke:#000000;stroke-width:1px;stroke-linecap:butt;stroke-linejoin:miter;stroke-opacity:1"
       d="m 238.396,263.50247 -98.99495,0 0,14.14214 98.99495,0 z"
       id="path3329"
       inkscape:connector-curvature="0"
       transform="translate(0,540.36218)" />
    <path
       inkscape:connector-curvature="0"
       id="path3331"
       d="m 364.66507,804.8748 -98.99495,0 0,14.14214 98.99495,0 z"
       style="fill:none;stroke:#000000;stroke-width:1px;stroke-linecap:butt;stroke-linejoin:miter;stroke-opacity:1" />
    <path
       style="fill:#552200;fill-opacity:1"
       d="m 266.30313,812.30469 0,-6.06092 47.98225,0 47.98224,0 0,6.06092 0,6.06091 -47.98224,0 -47.98225,0 0,-6.06091 z"
       id="path3333"
       inkscape:connector-curvature="0" />
    <path
       style="fill:#552200;fill-opacity:1"
       d="m 140.03406,270.93235 0,-6.06091 48.48732,0 48.48733,0 0,6.06091 0,6.06092 -48.48733,0 -48.48732,0 0,-6.06092 z"
       id="path3335"
       inkscape:connector-curvature="0"
       transform="translate(0,540.36218)" />
    <path
       inkscape:connector-curvature="0"
       id="path3337"
       d="m 141.04421,722.40111 0,-6.06091 48.48732,0 48.48733,0 0,6.06091 0,6.06092 -48.48733,0 -48.48732,0 0,-6.06092 z"
       style="fill:#552200;fill-opacity:1" />
    <path
       style="fill:#552200;fill-opacity:1"
       d="m 141.04421,722.40111 0,-6.06091 48.48732,0 48.48733,0 0,6.06091 0,6.06092 -48.48733,0 -48.48732,0 0,-6.06092 z"
       id="path3339"
       inkscape:connector-curvature="0" />
    <path
       inkscape:connector-curvature="0"
       id="path3341"
       d="m 265.29298,721.39096 0,-6.06092 47.98225,0 47.98224,0 0,6.06092 0,6.06091 -47.98224,0 -47.98225,0 0,-6.06091 z"
       style="fill:#552200;fill-opacity:1" />
  </g>
</svg>
