<?xml version="1.0" encoding="UTF-8" standalone="no"?>
<!-- Created with Inkscape (http://www.inkscape.org/) -->

<svg
   xmlns:dc="http://purl.org/dc/elements/1.1/"
   xmlns:cc="http://creativecommons.org/ns#"
   xmlns:rdf="http://www.w3.org/1999/02/22-rdf-syntax-ns#"
   xmlns:svg="http://www.w3.org/2000/svg"
   xmlns="http://www.w3.org/2000/svg"
   xmlns:sodipodi="http://sodipodi.sourceforge.net/DTD/sodipodi-0.dtd"
   xmlns:inkscape="http://www.inkscape.org/namespaces/inkscape"
   width="512"
   height="512"
   id="svg2"
   version="1.1"
   inkscape:version="0.48.4 r9939"
   sodipodi:docname="New document 1">
  <defs
     id="defs4" />
  <sodipodi:namedview
     id="base"
     pagecolor="#ffffff"
     bordercolor="#666666"
     borderopacity="1.0"
     inkscape:pageopacity="0.0"
     inkscape:pageshadow="2"
     inkscape:zoom="1.6488281"
     inkscape:cx="338.1026"
     inkscape:cy="258.58531"
     inkscape:document-units="px"
     inkscape:current-layer="layer1"
     showgrid="false"
     inkscape:window-width="1366"
     inkscape:window-height="705"
     inkscape:window-x="-8"
     inkscape:window-y="-8"
     inkscape:window-maximized="1" />
  <metadata
     id="metadata7">
    <rdf:RDF>
      <cc:Work
         rdf:about="">
        <dc:format>image/svg+xml</dc:format>
        <dc:type
           rdf:resource="http://purl.org/dc/dcmitype/StillImage" />
        <dc:title></dc:title>
      </cc:Work>
    </rdf:RDF>
  </metadata>
  <g
     inkscape:label="Layer 1"
     inkscape:groupmode="layer"
     id="layer1"
     transform="translate(0,-540.36218)">
    <path
       sodipodi:type="arc"
       style="fill:#803300;fill-opacity:1"
       id="path2985"
       sodipodi:cx="392.14285"
       sodipodi:cy="259.85715"
       sodipodi:rx="77.85714"
       sodipodi:ry="42.142857"
       d="m 469.99999,259.85715 a 77.85714,42.142857 0 1 1 -155.71428,0 77.85714,42.142857 0 1 1 155.71428,0 z"
       transform="translate(0,540.36218)" />
    <path
       sodipodi:type="arc"
       style="fill:#803300;fill-opacity:1"
       id="path2987"
       sodipodi:cx="223.57143"
       sodipodi:cy="302"
       sodipodi:rx="153.57143"
       sodipodi:ry="91.428574"
       d="M 377.14285,302 A 153.57143,91.428574 0 1 1 70,302 a 153.57143,91.428574 0 1 1 307.14285,0 z"
       transform="matrix(0.95348837,0,0,0.8984375,-21.0299,540.31977)" />
    <path
       style="fill:#552200;fill-opacity:1"
       id="path2989"
       d="m 456.40978,266.2781 c -3.58102,2.29672 -7.69459,3.40209 -11.82699,4.20032 -3.30146,0.56463 -6.65475,0.61667 -9.99453,0.63645 -2.874,-0.001 -5.74795,-0.0215 -8.62193,-0.0315 0,0 17.11542,-12.42499 17.11542,-12.42499 l 0,0 c 2.86379,0.0122 5.72776,0.0382 8.59152,0.01 3.23668,-0.0646 6.48537,-0.20776 9.65729,-0.9145 4.11569,-1.00012 8.00531,-2.51476 11.63766,-4.72081 0,0 -16.55844,13.24519 -16.55844,13.24519 z"
       inkscape:connector-curvature="0"
       transform="translate(0,540.36218)" />
    <path
       style="fill:#552200;fill-opacity:1"
       id="path2991"
       d="m 445.94479,268.22888 c -3.9714,-0.0871 -7.94442,-0.0526 -11.91645,-0.038 -2.73342,0.58356 -5.46839,1.06383 -8.25559,1.28614 -2.6991,0.83891 -5.49494,1.20681 -8.30203,1.42882 -2.86914,0.17926 -5.74537,0.17672 -8.61885,0.1813 -2.85954,-0.001 -5.71907,-0.008 -8.57861,-0.011 -3.13828,-0.004 -6.27645,-0.0184 -9.41475,-0.0158 -3.04503,0.005 -6.09007,0.009 -9.1351,0.0106 -2.8668,0.002 -5.73361,0.002 -8.60041,0.002 -2.85482,2e-5 -5.70964,-3e-5 -8.56445,-6e-5 -2.85685,-2e-5 -5.71369,-2e-5 -8.57054,-3e-5 -3.0665,0.007 -6.1329,-0.0134 -9.19939,-0.0138 -3.10711,0.003 -6.21422,0.008 -9.32133,0.0112 -2.87717,0.002 -5.75434,0.002 -8.63151,0.003 -3.19496,-0.0127 -6.38992,-0.0145 -9.58492,-0.0101 -3.26299,0.28406 -6.32421,-0.52836 -9.3906,-1.5222 -1.29627,-0.81413 -2.86942,-1.07318 -4.22712,-1.72723 -1.4172,-0.6827 -2.57349,-1.587 -4.06732,-2.13315 -8.38109,-3.05713 7.33562,-6.40045 16.99677,-12.15515 0.26796,-0.15961 2.51712,0.45118 2.83869,0.49346 3.36369,0.0972 6.65724,0.6611 9.98403,1.12068 3.50205,0.48144 7.03782,0.58202 10.56726,0.64279 4.0439,0.27004 8.0654,0.88486 12.12358,1.16278 3.73107,0.23172 7.46973,0.27183 11.20674,0.28452 2.92081,0.002 5.8416,-0.007 8.7624,-0.0114 3.33358,0.29014 6.4476,-0.93683 9.64755,-1.67851 4.95781,-0.99067 10.06752,-0.9524 15.10541,-1.05108 4.44399,-0.27172 8.99547,0.47415 13.28822,-0.90122 3.52113,-1.16678 7.17838,-1.6097 10.85687,-1.8932 3.24875,-0.20603 6.50566,-0.22104 9.75963,-0.20389 3.86378,0.0261 7.72741,0.0403 11.59129,0.0327 3.05902,-0.33097 5.97535,0.5046 8.96158,0.97284 3.05018,0.24367 6.04681,0.42209 9.05915,0.97252 2.97814,0.33188 5.45929,1.56479 7.46427,3.75856 1.6126,2.31287 1.66439,4.53967 0.54887,6.99982 -19.09406,11.29708 -12.97428,12.27199 -25.06652,9.40424 -3.03744,-0.8389 -6.22391,-0.69402 -9.2806,-1.34818 -2.82617,-0.6892 -5.71635,-0.97016 -8.61354,-1.12214 -3.04949,-0.11105 -6.1019,-0.11414 -9.15306,-0.11439 -3.90293,-0.009 -7.8059,-0.0169 -11.70885,-0.0118 -4.45295,-0.0238 -8.90611,-0.0133 -13.35909,0.003 -3.33306,0.0159 -6.66614,0.0265 -9.99924,0.0319 -4.04017,-0.0245 -8.08038,-0.0306 -12.12053,-0.0611 -4.37593,-0.009 -8.75178,0.0248 -13.12763,0.0453 -3.35235,-0.085 -6.6627,-0.80316 -10.0102,-1.11975 -3.00654,-0.25249 -6.02509,-0.28003 -9.04019,-0.29809 -2.94086,0.21274 -5.78045,-0.58563 -8.6722,-0.98563 -2.91453,-0.13282 -5.70211,-0.98262 -8.57619,-1.42175 -2.77035,-0.94032 -5.63366,-1.43555 -8.53796,-1.69663 -3.21693,-0.20732 -6.44246,-0.19941 -9.66452,-0.19889 -3.67445,-0.028 -7.34894,-0.0114 -11.02341,0.003 0,0 17.05803,-12.39653 17.05803,-12.39653 l 0,0 c 3.68637,0.006 7.37269,0.005 11.05902,-0.0153 3.27458,0.0274 6.55571,0.0538 9.8178,0.37038 2.91541,0.39338 5.74675,1.10889 8.60351,1.79321 2.84345,0.52603 5.66402,1.14662 8.55278,1.38637 2.82345,0.4477 5.62794,0.9301 8.50329,0.75247 3.04593,0.0505 6.09474,0.13951 9.12429,0.48344 3.27974,0.38589 6.54794,1.03584 9.86296,0.95076 4.33428,0.0206 8.66855,0.0548 13.0029,0.0453 4.09622,-0.0303 8.19251,-0.0367 12.28875,-0.0611 3.30381,0.005 6.60761,0.0161 9.91139,0.0318 4.45188,0.0164 8.90399,0.0258 13.35582,-0.003 3.92437,-1.6e-4 7.8487,-0.0189 11.77306,-0.0297 3.09167,0.008 6.18719,-0.0178 9.27315,0.20242 2.93683,0.24718 5.83996,0.69788 8.72459,1.3048 3.12287,0.38878 6.26627,0.6571 9.32491,1.44806 1.45055,0.30476 2.87574,0.56933 4.35948,0.64721 0.31154,0.0164 0.63085,0.0725 0.93588,0.007 0.20272,-0.0435 0.7106,-0.42755 0.53214,-0.32202 -5.92024,3.50078 -11.83834,7.0052 -17.7575,10.5078 1.04368,-0.42091 0.20878,0.0479 0.99035,-0.86652 1.13917,-1.33277 0.98995,-1.7347 0.0256,-3.30674 -1.832,-1.75191 -4.19673,-2.35049 -6.66987,-2.67299 -3.02534,-0.46358 -6.09131,-0.42385 -9.11063,-0.93944 -2.87209,-0.52196 -5.71837,-0.97217 -8.65654,-0.75845 -3.87621,-0.0171 -7.75231,-0.0194 -11.62851,0.004 -3.20966,0.0328 -6.42442,0.0409 -9.62357,0.33712 -3.62869,0.38845 -7.17621,1.12769 -10.68672,2.1299 -4.41987,0.68601 -8.90652,0.20283 -13.36177,0.42006 -5.02394,0.15251 -10.09912,0.27141 -14.99795,1.51696 -3.31285,0.8107 -6.57726,1.65491 -10.0247,1.3474 -2.91696,0.003 -5.83406,0.01 -8.75087,-0.0259 -3.72643,-0.0609 -7.45248,-0.18458 -11.1687,-0.47993 -4.05549,-0.32871 -8.09168,-0.91741 -12.16113,-1.00846 -3.57114,-0.12061 -7.14561,-0.29814 -10.67993,-0.85761 -3.36576,-0.48032 -6.73836,-0.72813 -10.11629,-1.07703 -0.96102,-0.17914 -1.39211,-0.23323 -2.31359,-0.50189 -0.30031,-0.0876 -1.13891,-0.1153 -0.88833,-0.30254 16.78771,-12.54356 11.08024,-14.93717 18.33041,-11.44059 2.66034,1.34817 5.2755,2.77064 8.1339,3.68195 2.94876,0.8718 5.93551,1.17608 9.01135,1.01234 3.20423,0.004 6.40842,0.003 9.61262,-0.0101 2.87473,1.8e-4 5.74947,4e-4 8.6242,0.003 3.09682,0.003 6.19364,0.008 9.29045,0.0112 3.07917,-4.5e-4 6.15825,-0.021 9.23744,-0.0138 2.85687,0 5.71374,0 8.57061,-3e-5 2.85487,-2e-5 5.70974,-8e-5 8.56461,-7e-5 2.86523,7e-5 5.73046,1e-4 8.59569,0.002 3.03531,0.002 6.07062,0.006 9.10592,0.011 3.15002,0.004 6.29993,-0.0103 9.44993,-0.007 2.85697,0.004 5.71397,0.0126 8.57093,5.6e-4 2.83558,-0.0231 5.67694,-0.0486 8.49999,-0.34535 2.80065,-0.346 5.53011,-1.01746 8.31572,-1.44021 2.76884,-0.34275 5.50067,-1.01346 8.29909,-1.0532 4.00693,0.0149 8.01476,0.0479 12.02109,-0.038 0,0 -17.14664,12.45776 -17.14664,12.45776 z"
       inkscape:connector-curvature="0"
       transform="translate(0,540.36218)" />
    <path
       sodipodi:type="arc"
       style="fill:#483737;fill-opacity:1"
       id="path2993"
       sodipodi:cx="211.42857"
       sodipodi:cy="282"
       sodipodi:rx="61.42857"
       sodipodi:ry="61.42857"
       d="M 272.85714,282 A 61.42857,61.42857 0 1 1 150,282 a 61.42857,61.42857 0 1 1 122.85714,0 z"
       transform="translate(0,540.36218)" />
    <path
       sodipodi:type="arc"
       style="fill:#241c1c;fill-opacity:1"
       id="path2995"
       sodipodi:cx="211.07143"
       sodipodi:cy="281.64285"
       sodipodi:rx="6.0714288"
       sodipodi:ry="6.7857141"
       d="m 217.14286,281.64285 a 6.0714288,6.7857141 0 1 1 -12.14286,0 6.0714288,6.7857141 0 1 1 12.14286,0 z"
       transform="translate(0,540.36218)" />
    <path
       sodipodi:type="arc"
       style="fill:#ff9955;fill-opacity:1"
       id="path2997"
       sodipodi:cx="203.57143"
       sodipodi:cy="393.07144"
       sodipodi:rx="27.142857"
       sodipodi:ry="27.5"
       d="m 230.71428,393.07144 a 27.142857,27.5 0 1 1 -54.28571,0 27.142857,27.5 0 1 1 54.28571,0 z"
       transform="translate(7.8571429,516.07647)" />
    <path
       transform="translate(7.8571429,343.21932)"
       d="m 230.71428,393.07144 a 27.142857,27.5 0 1 1 -54.28571,0 27.142857,27.5 0 1 1 54.28571,0 z"
       sodipodi:ry="27.5"
       sodipodi:rx="27.142857"
       sodipodi:cy="393.07144"
       sodipodi:cx="203.57143"
       id="path2999"
       style="fill:#ff9955;fill-opacity:1"
       sodipodi:type="arc" />
    <path
       style="fill:#552200;fill-opacity:1"
       id="path3005"
       d="m 46.543826,273.68587 c -4.785313,-0.27668 -9.315349,-2.40049 -13.740048,-4.08918 -6.103948,-2.47113 -12.555293,-3.86944 -18.748196,-6.07182 -2.891205,-1.04903 -4.6725766,-2.75312 -6.163218,-5.36437 -0.724224,-1.77898 -1.2108229,-3.65884 -1.5685504,-5.54485 -0.231798,-1.48439 -0.3539005,-2.99245 -0.2780401,-4.49392 0.8813881,-4.2527 3.4329889,-3.29949 9.8133165,-6.27738 0.1159,-0.0541 1.350465,1.50339 1.437492,1.61163 1.016564,1.61638 1.913965,3.28813 3.04858,4.82987 1.171098,1.63615 2.678061,2.94481 4.179031,4.26214 1.235411,1.35123 2.724467,2.39983 4.170138,3.50326 1.289912,1.05692 2.694733,1.97561 4.170912,2.74999 1.150586,0.77369 2.391609,1.44827 3.731211,1.81979 1.664938,0.4921 3.279993,1.07963 4.905959,1.68685 1.580425,0.57515 3.134773,1.14423 4.800542,1.41474 0.241156,0.0266 0.485313,0.0334 0.723469,0.0797 0.01598,0.003 2.591992,0.75251 1.745214,1.35248 -2.953074,2.09236 -6.172522,3.7808 -9.258784,5.6712 -1.233581,0.52987 -2.451105,0.54979 -3.73017,0.22052 -1.927257,-0.40655 -3.698573,-1.22393 -5.467826,-2.05511 -2.100538,-1.12133 -3.920224,-2.71866 -5.719649,-4.26308 -2.279723,-2.0978 -4.645364,-4.10469 -6.880031,-6.25059 -1.398079,-1.34649 -2.527035,-2.76813 -3.38162,-4.51125 -0.384996,-0.75092 -0.852867,-1.45333 -1.286547,-2.17616 0,0 9.132812,-5.28771 9.132812,-5.28771 l 0,0 c 0.441459,0.75157 0.924313,1.47891 1.307654,2.26322 0.78934,1.62403 1.920799,2.92032 3.159051,4.22493 2.169465,2.16079 4.442387,4.21953 6.756793,6.2234 1.810791,1.43426 3.617037,2.93607 5.694254,3.97078 1.7,0.80885 3.454482,1.50232 5.326423,1.79597 1.225364,0.0731 2.362497,-0.22205 3.470768,-0.7492 -2.930381,1.82763 -5.966009,3.49645 -8.791145,5.48291 -0.156176,0.10981 0.256489,0.28484 0.361326,0.4444 0.01664,0.0253 -0.05798,-0.0176 -0.08689,-0.0267 -0.568233,-0.17849 -1.150455,-0.27748 -1.739764,-0.36548 -1.673245,-0.37752 -3.261149,-0.99858 -4.872243,-1.57886 -1.615617,-0.60929 -3.265021,-1.09562 -4.906375,-1.62932 -1.359532,-0.49939 -2.632649,-1.1826 -3.835301,-1.99048 -1.485343,-0.85476 -2.919215,-1.7959 -4.246242,-2.88387 -1.469205,-1.10586 -2.906033,-2.24375 -4.16902,-3.58941 -1.568029,-1.36005 -3.103795,-2.74762 -4.316779,-4.44973 -1.115199,-1.5255 -2.0056708,-3.17802 -3.0581171,-4.73993 -0.225377,-0.25191 -0.5683596,-0.68145 -0.8777321,-0.85973 -0.039151,-0.0226 -0.1675605,0.0657 -0.1286645,0.0427 2.9589167,-1.74959 5.9275647,-3.48266 8.8913467,-5.22399 -0.454408,0.2454 -0.248352,0.0711 -0.580324,0.56467 -0.289513,1.38272 -0.0066,2.83977 0.103056,4.23268 0.288722,1.78646 0.733813,3.55952 1.359862,5.25638 1.315845,2.4093 2.979306,3.85165 5.572335,4.86575 6.091224,2.32305 12.441097,3.87134 18.522651,6.22793 4.498492,1.63117 9.146412,3.6074 14.020398,3.44537 0,0 -8.573319,6.22888 -8.573319,6.22888 z"
       inkscape:connector-curvature="0"
       transform="translate(0,540.36218)" />
    <rect
       style="fill:#241c1c;fill-opacity:1"
       id="rect3007"
       width="13.646055"
       height="6.3681593"
       x="238.65434"
       y="367.04855"
       transform="translate(0,540.36218)" />
    <rect
       style="fill:#6c5353;fill-opacity:1"
       id="rect3009"
       width="6.3681593"
       height="25.775883"
       x="251.99716"
       y="358.25446"
       transform="translate(0,540.36218)" />
    <rect
       style="fill:#916f6f;fill-opacity:1"
       id="rect3011"
       width="148.89363"
       height="6.3681593"
       x="258.36533"
       y="366.74533"
       transform="translate(0,540.36218)" />
    <path
       style="fill:#916f6f;stroke:#000000;stroke-width:1px;stroke-linecap:butt;stroke-linejoin:miter;stroke-opacity:1"
       d="m 406.9557,366.74532 8.79412,3.3357 -8.79412,3.03246"
       id="path3021"
       inkscape:connector-curvature="0"
       transform="translate(0,540.36218)" />
    <path
       style="fill:none;stroke:#000000;stroke-width:1px;stroke-linecap:butt;stroke-linejoin:miter;stroke-opacity:1"
       d="m 406.9557,373.2651 -148.59038,0"
       id="path3025"
       inkscape:connector-curvature="0"
       transform="translate(0,540.36218)" />
    <path
       style="fill:none;stroke:#000000;stroke-width:1px;stroke-linecap:butt;stroke-linejoin:miter;stroke-opacity:1"
       d="m 407.10732,366.5937 -148.742,0"
       id="path3027"
       inkscape:connector-curvature="0"
       transform="translate(0,540.36218)" />
    <path
       sodipodi:type="arc"
       style="fill:#1a1a1a;fill-opacity:1"
       id="path3029"
       sodipodi:cx="166.78513"
       sodipodi:cy="291.54041"
       sodipodi:rx="5.4584222"
       sodipodi:ry="24.562901"
       d="m 172.24355,291.54041 a 5.4584222,24.562901 0 1 1 -10.91685,0 5.4584222,24.562901 0 1 1 10.91685,0 z"
       transform="translate(0,540.36218)" />
  </g>
</svg>
